<svg width="90" height="16" viewBox="0 0 90 16" fill="none" xmlns="http://www.w3.org/2000/svg">
<g clip-path="url(#clip0_227_340)">
<path d="M18.077 4.46689C14.8232 4.46689 12.2807 6.93694 12.2807 10.2436C12.2807 13.5503 14.7589 15.9992 18.077 15.9992C21.395 15.9992 23.9163 13.508 23.9163 10.2225C23.9163 6.95808 21.4381 4.46689 18.077 4.46689ZM18.0989 13.6161C16.246 13.6161 14.8882 12.177 14.8882 10.2444C14.8882 8.28985 16.224 6.85157 18.077 6.85157C19.9519 6.85157 21.3088 8.3118 21.3088 10.2444C21.3088 12.177 19.9519 13.6161 18.0989 13.6161ZM24.6269 6.98003H26.2432V15.7854H28.8287V4.68154H24.6269V6.98003ZM5.77391 6.85075C7.1317 6.85075 8.20899 7.6882 8.61796 8.93379H11.3547C10.8587 6.27105 8.66105 4.46689 5.79586 4.46689C2.54204 4.46689 -0.000366211 6.93694 -0.000366211 10.2444C-0.000366211 13.5519 2.47781 16 5.79586 16C8.59682 16 10.8376 14.1958 11.3335 11.5112H8.61796C8.23013 12.7567 7.15284 13.6161 5.79505 13.6161C3.92016 13.6161 2.60627 12.177 2.60627 10.2444C2.60708 8.28985 3.89983 6.85075 5.77391 6.85075ZM73.753 9.17038L71.8569 8.89151C70.952 8.76305 70.3056 8.46222 70.3056 7.75324C70.3056 6.98003 71.1463 6.59383 72.2879 6.59383C73.5375 6.59383 74.3351 7.13044 74.5075 8.01098H77.0068C76.7263 5.77753 75.0026 4.46771 72.3529 4.46771C69.6162 4.46771 67.8063 5.86371 67.8063 7.83942C67.8063 9.72895 68.9918 10.8249 71.3829 11.168L73.279 11.4469C74.2058 11.5754 74.7229 11.9413 74.7229 12.6283C74.7229 13.5088 73.818 13.8739 72.5684 13.8739C71.0382 13.8739 70.1764 13.2511 70.0471 12.3063H67.5047C67.7421 14.4755 69.4438 16 72.5464 16C75.3693 16 77.2434 14.7113 77.2434 12.499C77.2434 10.5233 75.8864 9.49235 73.753 9.17038ZM27.536 0.107323C26.588 0.107323 25.8766 0.794349 25.8766 1.73911C25.8766 2.68388 26.5872 3.3709 27.536 3.3709C28.484 3.3709 29.1954 2.68388 29.1954 1.73911C29.1954 0.794349 28.484 0.107323 27.536 0.107323ZM65.4794 8.48336C65.4794 6.07836 64.0143 4.46771 60.9117 4.46771C57.9814 4.46771 56.344 5.9499 56.0204 8.22643H58.5847C58.714 7.3459 59.4035 6.61578 60.8686 6.61578C62.1833 6.61578 62.8297 7.19549 62.8297 7.90447C62.8297 8.82809 61.6442 9.06388 60.1791 9.21429C58.1969 9.42894 55.7407 10.116 55.7407 12.6933C55.7407 14.691 57.2278 15.9789 59.5978 15.9789C61.4507 15.9789 62.6142 15.2057 63.1964 13.9812C63.2825 15.0764 64.1013 15.7854 65.2436 15.7854H66.7518V13.4877H65.4802V8.48336H65.4794ZM62.937 11.2754C62.937 12.7576 61.6442 13.8527 60.071 13.8527C59.101 13.8527 58.2823 13.4446 58.2823 12.586C58.2823 11.4908 59.597 11.19 60.8035 11.0615C61.967 10.9542 62.6134 10.6965 62.937 10.2021V11.2754ZM49.2119 4.46689C47.7679 4.46689 46.5614 5.06855 45.6995 6.07754V0H43.114V15.7854H45.6564V14.3251C46.5183 15.3772 47.7468 16 49.2119 16C52.3145 16 54.6634 13.5519 54.6634 10.2444C54.6634 6.93694 52.2714 4.46689 49.2119 4.46689ZM48.8241 13.6161C46.9711 13.6161 45.6133 12.177 45.6133 10.2444C45.6133 8.3118 46.9923 6.85157 48.8452 6.85157C50.7201 6.85157 52.034 8.29067 52.034 10.2444C52.034 12.177 50.677 13.6161 48.8241 13.6161ZM36.93 4.46689C35.2494 4.46689 34.1502 5.15392 33.5038 6.12064V4.68154H30.9394V15.7845H33.5249V9.75009C33.5249 8.05325 34.6022 6.85075 36.1966 6.85075C37.6837 6.85075 38.6097 7.90284 38.6097 9.42812V15.7854H41.1952V9.23543C41.196 6.4426 39.7529 4.46689 36.93 4.46689ZM89.5684 9.87936C89.5684 6.70115 87.2415 4.46771 84.1169 4.46771C80.7989 4.46771 78.3638 6.95889 78.3638 10.2444C78.3638 13.7023 80.9712 16 84.16 16C86.8536 16 88.9651 14.4105 89.5034 12.1559H86.8097C86.4219 13.1438 85.4739 13.7023 84.2023 13.7023C82.5429 13.7023 81.2932 12.6714 81.0135 10.8672H89.5676V9.87936H89.5684ZM81.1647 9.01997C81.5745 7.47355 82.738 6.72229 84.0738 6.72229C85.539 6.72229 86.6593 7.55973 86.9179 9.01997H81.1647Z" fill="#BEA9DA"/>
</g>
<defs>
<clipPath id="clip0_227_340">
<rect width="89.5688" height="16" fill="white"/>
</clipPath>
</defs>
</svg>
