<svg width="125" height="24" viewBox="0 0 125 24" fill="none" xmlns="http://www.w3.org/2000/svg">
<path d="M10.3964 6.10352e-05L0.000610352 6.00006V18.0001L10.3964 24.0001L20.7923 18.0001V6.00006L10.3964 6.10352e-05ZM10.3964 6.10352e-05L0.000610352 6.00006V18.0001L10.3964 24.0001L20.7923 18.0001V6.00006L10.3964 6.10352e-05Z" fill="#050109"/>
<path d="M14.5006 19.3126H13.0214L11.2506 17.6876V16.8542L13.0839 15.1042V12.3334L15.4798 10.7709L18.2089 12.8334L14.5006 19.3126ZM8.37561 14.9376L8.64644 12.3334L7.75061 10.0001H13.0423L12.1673 12.3334L12.4173 14.9376H10.3756H8.37561ZM9.58394 17.6876L7.81311 19.3334H6.31311L2.58394 12.8334L5.33394 10.7917L7.75061 12.3334V15.1042L9.58394 16.8542V17.6876ZM6.29228 5.18757H14.4798L15.4589 9.35423H5.33394L6.29228 5.18757ZM10.3964 6.10352e-05L0.000610352 6.00006V18.0001L10.3964 24.0001L20.7923 18.0001V6.00006L10.3964 6.10352e-05Z" fill="#BEA9DA"/>
<path d="M32.457 17.5625C29.707 17.5625 27.6862 15.4167 27.6862 12.7709C27.6862 10.125 29.7278 7.91669 32.4778 7.91669C34.2278 7.91669 35.3112 8.56252 36.1653 9.50002L34.8528 10.9167C34.207 10.2292 33.5195 9.77086 32.457 9.77086C30.9153 9.77086 29.7903 11.1042 29.7903 12.7292C29.7903 14.3959 30.9362 15.7292 32.5612 15.7292C33.5612 15.7292 34.2903 15.25 34.957 14.5834L36.2278 15.8542C35.3112 16.8334 34.2487 17.5625 32.457 17.5625Z" fill="#BEA9DA"/>
<path d="M40.2496 17.5625H38.1246V7.93754H40.2496V10.1875C40.833 8.81254 41.8955 7.8542 43.5205 7.93754V10.1875H43.3955C41.5413 10.1875 40.2496 11.3959 40.2496 13.8542V17.5625Z" fill="#BEA9DA"/>
<path d="M54.6259 7.89587L49.9384 20.1459H47.7926L48.8134 17.5625L44.7926 7.89587H47.0634L49.7926 15.0417L52.4176 7.89587H54.6259Z" fill="#BEA9DA"/>
<path d="M60.875 9.75004C59.4375 9.75004 58.1875 10.9167 58.1875 12.7292C58.1875 14.5417 59.4583 15.7084 60.875 15.7084C62.3333 15.7084 63.5208 14.5625 63.5208 12.7292C63.5208 10.8959 62.3125 9.75004 60.875 9.75004ZM61.3541 17.5417C59.8333 17.5417 58.875 16.7709 58.2291 15.9167V20.1459H56.1041V7.89587H58.2291V9.62504C58.9166 8.6667 59.875 7.89587 61.3541 7.89587C63.5416 7.89587 65.6666 9.62504 65.6666 12.7084C65.6666 15.7917 63.5625 17.5417 61.3541 17.5417Z" fill="#BEA9DA"/>
<path d="M70.3118 9.91667V14.4583C70.3118 15.2708 70.7285 15.6042 71.4576 15.6042H72.291V17.5H70.8326C69.291 17.5 68.1868 16.8125 68.1868 14.7917V9.91667H67.0201V8.10417H68.1868V5.5625H70.3118V8.10417H72.291V9.91667H70.3118Z" fill="#BEA9DA"/>
<path d="M78.9795 9.75002C77.2711 9.75002 76.1878 11.0834 76.1878 12.7084C76.1878 14.3542 77.3545 15.7084 79.0003 15.7084C80.7086 15.7084 81.792 14.375 81.792 12.75C81.8336 11.1042 80.6461 9.75002 78.9795 9.75002ZM78.9795 17.5625C76.167 17.5625 74.0836 15.4167 74.0836 12.7709C74.0836 10.1042 76.1878 7.91669 79.0211 7.91669C81.8545 7.91669 83.9378 10.0625 83.9378 12.7292C83.9378 15.3542 81.8545 17.5625 78.9795 17.5625Z" fill="#BEA9DA"/>
<path d="M104.21 9.75002C102.502 9.75002 101.418 11.0834 101.418 12.7084C101.418 14.3542 102.585 15.7084 104.231 15.7084C105.939 15.7084 107.022 14.375 107.022 12.75C107.043 11.1042 105.877 9.75002 104.21 9.75002ZM104.21 17.5625C101.397 17.5625 99.3141 15.4167 99.3141 12.7709C99.3141 10.1042 101.418 7.91669 104.252 7.91669C107.085 7.91669 109.168 10.0625 109.168 12.7292C109.168 15.3542 107.064 17.5625 104.21 17.5625Z" fill="#BEA9DA"/>
<path d="M121.749 7.89587C123.77 7.89587 124.999 9.16671 124.999 11.4375V17.5417H122.874V12.0834C122.874 10.6042 122.186 9.83337 120.999 9.83337C119.853 9.83337 119.02 10.6459 119.02 12.125V17.5625H116.895V12.0834C116.895 10.6459 116.186 9.83337 115.02 9.83337C113.853 9.83337 113.041 10.7084 113.041 12.1459V17.5625H110.916V7.9167H113.041V9.50004C113.645 8.68754 114.436 7.9167 115.853 7.9167C117.186 7.9167 118.103 8.56254 118.603 9.54171C119.374 8.54171 120.353 7.89587 121.749 7.89587Z" fill="#BEA9DA"/>
<path d="M87.8333 15.6042V16.6875L87.7708 16.7917L86.8333 17.3125H86.7083L85.7916 16.7917L85.7291 16.6875V15.6042L85.7916 15.5L86.7083 14.9792H86.8333L87.7708 15.5L87.8333 15.6042Z" fill="#BEA9DA"/>
<path d="M94.2698 17.5417C91.5198 17.4792 89.5406 15.2917 89.5823 12.6458C89.624 10 91.7073 7.83335 94.4781 7.89585C96.2281 7.93752 97.3115 8.60418 98.1448 9.56252L96.8115 10.9583C96.1865 10.2708 95.499 9.77085 94.4365 9.75002C92.8948 9.72918 91.749 11.0208 91.7281 12.6667C91.6865 14.3333 92.8115 15.6875 94.4365 15.7083C95.4365 15.7292 96.1865 15.2708 96.8531 14.6042L98.1031 15.8958C97.1656 16.875 96.0823 17.5833 94.2698 17.5417Z" fill="#BEA9DA"/>
</svg>
