<svg width="113" height="16" viewBox="0 0 113 16" fill="none" xmlns="http://www.w3.org/2000/svg">
<path d="M29.1784 3.97315C28.0379 3.97315 26.8328 4.53154 26.0797 5.39058H26.0366V0H23.9492V15.6779H25.8645V14.5826H25.9075C26.6391 15.4201 27.9733 16 29.1354 16C32.148 16 34.0847 13.6375 34.0847 9.98655C34.0847 6.44293 32.0619 3.97315 29.1784 3.97315ZM28.8125 14.11C27.2417 14.11 26.0366 13.0362 26.0366 11.6188V8.5691C26.0366 7.04428 27.2417 5.88454 28.8125 5.88454C30.8568 5.88454 31.9973 7.36642 31.9973 9.98655C31.9973 12.6282 30.8568 14.11 28.8125 14.11Z" fill="#BEA9DA"/>
<path d="M17.1726 3.97314C14.0737 3.97314 11.9434 6.44294 11.9434 9.98656C11.9434 13.6162 14.0092 16 17.1726 16C20.2928 16 22.3371 13.6162 22.3371 9.98656C22.3371 6.44294 20.2281 3.97314 17.1726 3.97314ZM17.1726 14.11C15.2143 14.11 14.0092 12.5207 14.0092 9.98656C14.0092 7.45233 15.2143 5.88455 17.1726 5.88455C19.0661 5.88455 20.2713 7.49529 20.2713 9.98656C20.2713 12.4993 19.0661 14.11 17.1726 14.11Z" fill="#BEA9DA"/>
<path d="M10.9747 5.004C10.9747 2.34092 8.99495 0.644287 5.89621 0.644287H0V15.6778H2.1519V9.72882H5.22912C7.59622 9.72882 8.45698 10.6738 8.45698 13.2939V15.6778H10.5443V13.2939C10.5443 10.895 9.81268 9.46896 8.21812 8.88266C9.85141 8.31138 10.9747 6.96695 10.9747 5.004ZM5.72407 7.81742H2.1519V2.59863H5.70255C7.74685 2.59863 8.80129 3.47917 8.80129 5.21877C8.80129 6.89393 7.72533 7.81742 5.72407 7.81742Z" fill="#BEA9DA"/>
<path d="M45.4692 3.97314C44.2642 3.97314 42.9731 4.55301 42.349 5.39059H42.306V4.2953H40.2617V15.6779H42.349V8.52616C42.349 6.91542 43.4035 5.90603 45.0605 5.90603C46.6959 5.90603 47.4705 6.851 47.4705 8.82683V15.6779H49.5794V8.22549C49.5794 5.60535 47.9871 3.97314 45.4692 3.97314Z" fill="#BEA9DA"/>
<path d="M79.5103 3.97314C76.4115 3.97314 74.2812 6.44294 74.2812 9.98656C74.2812 13.6162 76.347 16 79.5103 16C82.6305 16 84.675 13.6162 84.675 9.98656C84.675 6.44294 82.566 3.97314 79.5103 3.97314ZM79.5103 14.11C77.552 14.11 76.347 12.5207 76.347 9.98656C76.347 7.45233 77.552 5.88455 79.5103 5.88455C81.404 5.88455 82.609 7.49529 82.609 9.98656C82.609 12.4993 81.404 14.11 79.5103 14.11Z" fill="#BEA9DA"/>
<path d="M94.017 0V5.39058H93.9738C93.2207 4.51006 92.0372 3.97315 90.8967 3.97315C88.0132 3.97315 85.9688 6.48588 85.9688 9.98655C85.9688 13.6375 87.9055 16 90.9182 16C92.0802 16 93.4144 15.4201 94.146 14.5826H94.189V15.6779H96.1042V0H94.017ZM94.017 11.6188C94.017 13.0362 92.8118 14.11 91.2409 14.11C89.1967 14.11 88.0562 12.6282 88.0562 9.98655C88.0562 7.36642 89.1967 5.88454 91.2409 5.88454C92.8118 5.88454 94.017 7.04428 94.017 8.5691V11.6188Z" fill="#BEA9DA"/>
<path d="M67.8286 3.97314C64.7299 3.97314 62.5996 6.44294 62.5996 9.98656C62.5996 13.6162 64.6654 16 67.8286 16C70.949 16 72.9933 13.6162 72.9933 9.98656C72.9933 6.44294 70.8844 3.97314 67.8286 3.97314ZM67.8286 14.11C65.8705 14.11 64.6654 12.5207 64.6654 9.98656C64.6654 7.45233 65.8705 5.88455 67.8286 5.88455C69.7224 5.88455 70.9274 7.49529 70.9274 9.98656C70.9274 12.4993 69.7224 14.11 67.8286 14.11Z" fill="#BEA9DA"/>
<path d="M37.9782 0H35.7188V2.21207H37.9782V0Z" fill="#BEA9DA"/>
<path d="M57.0242 3.97315C55.7545 3.97315 54.4633 4.57449 53.8608 5.43354H53.8178V0H51.7305V15.6779H53.8178V8.52614C53.8178 6.97984 54.9367 5.90602 56.5291 5.90602C58.1 5.90602 59.0038 6.93689 59.0038 8.71944V15.6779H61.0912V8.20401C61.0912 5.60536 59.5203 3.97315 57.0242 3.97315Z" fill="#BEA9DA"/>
<path d="M37.8939 4.29523H35.8066V15.6777H37.8939V4.29523Z" fill="#BEA9DA"/>
<path d="M106.004 12.538L105.898 12.5728C105.215 12.7992 104.204 13.1488 103.297 13.5652C103.249 13.5884 103.217 13.6523 103.217 13.6523C103.2 13.6915 103.179 13.7394 103.156 13.7931L103.153 13.8002C103.051 14.031 102.912 14.3777 102.851 14.5199L102.804 14.6316C102.797 14.649 102.801 14.6693 102.816 14.6824C102.825 14.6911 102.835 14.6954 102.846 14.6954C102.852 14.6954 102.859 14.694 102.867 14.6911L102.976 14.6389C103.224 14.5213 103.538 14.3428 103.867 14.1862L103.879 14.1804C104.505 13.8844 105.212 13.5492 105.637 13.3461C105.637 13.3461 105.706 13.3099 105.741 13.2417L106.059 12.6034C106.068 12.5874 106.065 12.567 106.053 12.5525C106.04 12.538 106.021 12.5322 106.004 12.538Z" fill="#BEA9DA"/>
<path d="M103.458 11.55C103.503 11.463 103.709 11.0654 103.756 10.9769L103.765 10.961C105.149 8.3567 106.835 5.89898 108.776 3.65889L108.829 3.5965C108.845 3.57765 108.848 3.54862 108.837 3.52686C108.824 3.50364 108.799 3.49204 108.774 3.49495L108.693 3.50655C107.419 3.6821 106.13 3.92439 104.859 4.22762C104.733 4.26244 104.651 4.34514 104.634 4.36399C103.683 5.5 102.783 6.6955 101.958 7.92145C101.917 7.98384 101.902 8.06509 101.913 8.13182C101.921 8.19711 102.121 9.72774 102.423 10.903C101.673 13.0575 101.003 15.8967 101.003 15.8967C100.997 15.9156 101.001 15.9344 101.011 15.9504C101.023 15.9663 101.04 15.9751 101.061 15.9751H101.488C101.516 15.9751 101.539 15.9591 101.549 15.9344L101.578 15.8546C102.014 14.6679 102.512 13.4955 103.061 12.3523C103.188 12.0868 103.458 11.55 103.458 11.55Z" fill="#BEA9DA"/>
<path d="M109.402 4.12458L109.4 4.04333C109.399 4.01722 109.383 3.99545 109.359 3.98675C109.336 3.97804 109.309 3.9853 109.291 4.00415L109.237 4.06509C106.974 6.67805 105.071 9.57683 103.582 12.683L103.547 12.7557C103.536 12.7788 103.54 12.8064 103.558 12.8253C103.569 12.8368 103.585 12.8441 103.601 12.8441C103.609 12.8441 103.617 12.8426 103.626 12.8398L103.7 12.8093C104.972 12.2841 106.27 11.8285 107.56 11.4556C107.637 11.4339 107.702 11.3788 107.738 11.3077C108.304 10.2079 109.617 8.07811 109.617 8.07811C109.65 8.03023 109.641 7.95914 109.641 7.95914C109.641 7.95914 109.416 5.41292 109.402 4.12458Z" fill="#BEA9DA"/>
<path d="M112.328 0.451067C112.007 0.172506 111.54 0.041931 110.816 0.0259718C110.159 0.0114634 109.378 0.153646 108.493 0.443813C108.361 0.49024 108.255 0.564233 108.16 0.655635C107.26 1.49857 106.385 2.39374 105.558 3.31648L105.494 3.38611C105.477 3.40642 105.474 3.43545 105.487 3.45721C105.5 3.48041 105.527 3.49203 105.553 3.48622L105.647 3.46591C106.98 3.18155 108.326 2.96392 109.647 2.82029C109.734 2.81013 109.825 2.83915 109.888 2.89863C109.954 2.95812 109.99 3.04371 109.989 3.13221C109.967 4.44088 110.015 5.75533 110.131 7.03932L110.138 7.12348C110.141 7.14959 110.159 7.1699 110.185 7.17716C110.189 7.1786 110.194 7.1786 110.2 7.18006C110.218 7.18006 110.239 7.17135 110.252 7.15394L110.3 7.08575C111.044 6.02664 111.854 4.99655 112.706 4.02158C112.802 3.91277 112.826 3.84458 112.844 3.74593C113.111 2.03683 112.698 0.771703 112.328 0.451067Z" fill="#BEA9DA"/>
</svg>
