<svg
    width="25"
    height="22"
    viewBox="0 0 25 22"
    fill="none"
    xmlns="http://www.w3.org/2000/svg"
>
    <path
    opacity="0.512128"
    d="M10.7891 17.9922C11.0026 17.9922 11.1849 17.9141 11.3359 17.7578L17.1406 12.1016C17.224 12.0078 17.2891 11.9115 17.3359 11.8125C17.3828 11.7135 17.4062 11.6094 17.4062 11.5C17.4062 11.2604 17.3177 11.0599 17.1406 10.8984L11.3359 5.23438C11.263 5.16146 11.181 5.10417 11.0898 5.0625C10.9987 5.02083 10.8984 5 10.7891 5C10.638 5 10.5039 5.03516 10.3867 5.10547C10.2695 5.17578 10.1758 5.26953 10.1055 5.38672C10.0352 5.50391 10 5.63802 10 5.78906C10 6.0026 10.0781 6.1875 10.2344 6.34375L15.5062 11.5009L10.2344 16.6484C10.0781 16.8047 10 16.9896 10 17.2031C10 17.3542 10.0352 17.4883 10.1055 17.6055C10.1758 17.7227 10.2695 17.8164 10.3867 17.8867C10.5039 17.957 10.638 17.9922 10.7891 17.9922Z"
    fill="#9DA6B1"></path>
</svg>
