<svg
    width="25"
    height="22"
    viewBox="0 0 25 22"
    fill="none"
    xmlns="http://www.w3.org/2000/svg"
>
    <path
    opacity="0.512128"
    d="M14.6172 17.9766C14.7682 17.9766 14.9023 17.944 15.0195 17.8789C15.1367 17.8138 15.2305 17.7214 15.3008 17.6016C15.3711 17.4818 15.4062 17.349 15.4062 17.2031C15.4062 16.9896 15.3281 16.8021 15.1719 16.6406L9.88819 11.4891L15.1719 6.34375C15.2969 6.21458 15.3719 6.06875 15.3969 5.90625L15.4062 5.78125C15.4062 5.63542 15.3711 5.5026 15.3008 5.38281C15.2305 5.26302 15.1367 5.16927 15.0195 5.10156C14.9023 5.03385 14.7682 5 14.6172 5C14.4036 5 14.2214 5.07552 14.0703 5.22656L8.26562 10.8906C8.18229 10.974 8.11719 11.0664 8.07031 11.168C8.02344 11.2695 8 11.3776 8 11.4922C8 11.7161 8.08854 11.9141 8.26562 12.0859L14.0625 17.7578C14.1406 17.8307 14.2253 17.8854 14.3164 17.9219C14.4076 17.9583 14.5078 17.9766 14.6172 17.9766Z"
    fill="#9DA6B1"></path>
</svg>
