<svg
    width="37"
    height="22"
    viewBox="0 0 37 22"
    fill="none"
    xmlns="http://www.w3.org/2000/svg"
>
    <path
    fill-rule="evenodd"
    clip-rule="evenodd"
    d="M26.8789 18.1172C26.4805 18.513 25.8854 18.7109 25.0938 18.7109H12.3828C11.5964 18.7109 11.0026 18.5143 10.6016 18.1211C10.2005 17.7279 10 17.1406 10 16.3594V7.35156C10 6.57031 10.2005 5.98307 10.6016 5.58984C11.0026 5.19661 11.5964 5 12.3828 5H25.0938C25.8854 5 26.4805 5.19792 26.8789 5.59375C27.2773 5.98958 27.4766 6.57552 27.4766 7.35156V16.3594C27.4766 17.1354 27.2773 17.7214 26.8789 18.1172ZM12.4375 17.375L15.7732 17.3757V6.33669L12.4375 6.33594C12.0885 6.33594 11.819 6.42969 11.6289 6.61719C11.4388 6.80469 11.3438 7.08333 11.3438 7.45312V16.2578C11.3438 16.6276 11.4388 16.9062 11.6289 17.0938C11.819 17.2812 12.0885 17.375 12.4375 17.375ZM25.0391 17.375L17.0622 17.3757V6.33669L25.0391 6.33594C25.388 6.33594 25.6576 6.42969 25.8477 6.61719C26.0378 6.80469 26.1328 7.08333 26.1328 7.45312V16.2578C26.1328 16.6276 26.0378 16.9062 25.8477 17.0938C25.6576 17.2812 25.388 17.375 25.0391 17.375ZM14.6602 8.92188C14.569 9.01562 14.4609 9.0625 14.3359 9.0625H12.7891C12.6693 9.0625 12.5638 9.01562 12.4727 8.92188C12.3815 8.82812 12.3359 8.72656 12.3359 8.61719C12.3359 8.49219 12.3815 8.38542 12.4727 8.29688C12.5638 8.20833 12.6693 8.16406 12.7891 8.16406H14.3359C14.4609 8.16406 14.569 8.20833 14.6602 8.29688C14.7513 8.38542 14.7969 8.49219 14.7969 8.61719C14.7969 8.72656 14.7513 8.82812 14.6602 8.92188ZM14.3359 11.0156C14.4609 11.0156 14.569 10.9701 14.6602 10.8789C14.7513 10.7878 14.7969 10.6823 14.7969 10.5625C14.7969 10.4427 14.7513 10.3385 14.6602 10.25C14.569 10.1615 14.4609 10.1172 14.3359 10.1172H12.7891C12.6693 10.1172 12.5638 10.1615 12.4727 10.25C12.3815 10.3385 12.3359 10.4427 12.3359 10.5625C12.3359 10.6823 12.3815 10.7878 12.4727 10.8789C12.5638 10.9701 12.6693 11.0156 12.7891 11.0156H14.3359ZM14.6602 12.8281C14.569 12.9167 14.4609 12.9609 14.3359 12.9609H12.7891C12.6693 12.9609 12.5638 12.9167 12.4727 12.8281C12.3815 12.7396 12.3359 12.638 12.3359 12.5234C12.3359 12.3984 12.3815 12.2917 12.4727 12.2031C12.5638 12.1146 12.6693 12.0703 12.7891 12.0703H14.3359C14.4609 12.0703 14.569 12.1146 14.6602 12.2031C14.7513 12.2917 14.7969 12.3984 14.7969 12.5234C14.7969 12.638 14.7513 12.7396 14.6602 12.8281Z"
    fill="#9DA6B1"></path>
</svg>
