<svg width="24" height="24" viewBox="0 0 24 24" fill="none" xmlns="http://www.w3.org/2000/svg">
<path fill-rule="evenodd" clip-rule="evenodd" d="M10.856 13.1439C9.68599 11.9739 8.80399 10.6639 8.21799 9.33487C8.09399 9.05387 8.16699 8.72487 8.38399 8.50787L9.20299 7.68987C9.87399 7.01887 9.87399 6.06987 9.28799 5.48387L8.11399 4.30987C7.33299 3.52887 6.06699 3.52887 5.28599 4.30987L4.63399 4.96187C3.89299 5.70287 3.58399 6.77187 3.78399 7.83187C4.27799 10.4449 5.79599 13.3059 8.24499 15.7549C10.694 18.2039 13.555 19.7219 16.168 20.2159C17.228 20.4159 18.297 20.1069 19.038 19.3659L19.689 18.7149C20.47 17.9339 20.47 16.6679 19.689 15.8869L18.516 14.7139C17.93 14.1279 16.98 14.1279 16.395 14.7139L15.492 15.6179C15.275 15.8349 14.946 15.9079 14.665 15.7839C13.336 15.1969 12.026 14.3139 10.856 13.1439Z" stroke="#0F0F11" stroke-width="1.5" stroke-linecap="round" stroke-linejoin="round"/>
</svg>
