<svg
width="13"
height="13"
viewBox="0 0 13 13"
fill="none"
xmlns="http://www.w3.org/2000/svg"
>
<path
    d="M6.50413 13C6.64738 13 6.77961 12.9635 6.90083 12.8906C7.02204 12.8176 7.11983 12.7217 7.19421 12.6029C7.2686 12.484 7.30579 12.357 7.30579 12.2219V7.28616H12.2066C12.3444 7.28616 12.4752 7.25104 12.5992 7.1808C12.7231 7.11056 12.8209 7.016 12.8926 6.89713C12.9642 6.77826 13 6.64589 13 6.5C13 6.35952 12.9642 6.22984 12.8926 6.11097C12.8209 5.9921 12.7231 5.8962 12.5992 5.82325C12.4752 5.75031 12.3444 5.71384 12.2066 5.71384H7.30579V0.778055C7.30579 0.637573 7.2686 0.509248 7.19421 0.39308C7.11983 0.276912 7.02204 0.182357 6.90083 0.109414C6.77961 0.0364713 6.64738 0 6.50413 0C6.36088 0 6.22727 0.0364713 6.10331 0.109414C5.97934 0.182357 5.88154 0.276912 5.80992 0.39308C5.73829 0.509248 5.70248 0.637573 5.70248 0.778055V5.71384H0.801653C0.658402 5.71384 0.527548 5.75031 0.409091 5.82325C0.290634 5.8962 0.192837 5.9921 0.115702 6.11097C0.0385675 6.22984 0 6.35952 0 6.5C0 6.64589 0.0385675 6.77826 0.115702 6.89713C0.192837 7.016 0.290634 7.11056 0.409091 7.1808C0.527548 7.25104 0.658402 7.28616 0.801653 7.28616H5.70248V12.2219C5.70248 12.357 5.73829 12.484 5.80992 12.6029C5.88154 12.7217 5.97934 12.8176 6.10331 12.8906C6.22727 12.9635 6.36088 13 6.50413 13Z"
    fill="#9DA6B1"></path>
</svg>
