<svg width="24" height="24" viewBox="0 0 24 24" fill="none" xmlns="http://www.w3.org/2000/svg">
<path fill-rule="evenodd" clip-rule="evenodd" d="M2.99622 16.794C5.20628 16.794 6.99788 18.5856 6.99788 20.7957C6.99788 18.5856 8.78949 16.794 10.9995 16.794C8.78949 16.794 6.99788 15.0024 6.99788 12.7923C6.99788 15.0024 5.20628 16.794 2.99622 16.794Z" stroke="#BA8CF9" stroke-width="1.5" stroke-linecap="round" stroke-linejoin="round"/>
<path fill-rule="evenodd" clip-rule="evenodd" d="M13.0004 13.7927C15.2105 13.7927 17.0021 15.5844 17.0021 17.7944C17.0021 15.5844 18.7937 13.7927 21.0038 13.7927C18.7937 13.7927 17.0021 12.0011 17.0021 9.79108C17.0021 12.0011 15.2105 13.7927 13.0004 13.7927V13.7927Z" stroke="#BA8CF9" stroke-width="1.5" stroke-linecap="round" stroke-linejoin="round"/>
<path fill-rule="evenodd" clip-rule="evenodd" d="M6.99792 6.78983C9.20798 6.78983 10.9996 8.58144 10.9996 10.7915C10.9996 8.58144 12.7912 6.78983 15.0013 6.78983C12.7912 6.78983 10.9996 4.99822 10.9996 2.78816C10.9996 4.99822 9.20798 6.78983 6.99792 6.78983Z" stroke="#BA8CF9" stroke-width="1.5" stroke-linecap="round" stroke-linejoin="round"/>
</svg>
