<svg width="297" height="299" viewBox="0 0 297 299" fill="none" xmlns="http://www.w3.org/2000/svg">
<path d="M207.862 117.311C207.882 117.691 207.302 117.871 207.172 117.511C206.982 116.981 206.822 116.621 206.552 116.061C194.062 90.3915 172.012 76.5615 145.592 66.7415C109.922 53.4815 82.3717 59.2815 46.0317 61.2215C43.4917 61.3615 34.9817 62.2215 34.2017 59.2315C30.3317 44.4115 59.4517 26.4615 76.8417 24.7115C127.752 19.5815 204.742 60.5515 207.862 117.301V117.311Z" fill="white"/>
<path d="M177.431 208.061C176.871 208.141 176.631 207.371 177.141 207.121C183.551 204.011 188.401 200.661 193.831 196.411C213.261 181.171 230.281 149.891 235.611 125.981C242.241 96.2414 238.131 62.6214 235.941 32.4414C236.631 26.7914 242.151 30.6114 245.761 32.5014C287.931 54.5514 270.861 115.891 253.091 149.081C237.071 179.001 212.101 203.321 177.421 208.071L177.431 208.061Z" fill="white"/>
<path d="M119.442 92.4614L114.622 95.4114C97.9718 105.601 84.0618 119.761 74.4318 136.731C67.5818 148.811 63.7418 162.091 61.2318 173.631C55.1718 201.481 57.5218 229.321 57.8518 257.431C57.9018 261.821 53.3218 264.701 49.3518 262.821C16.1118 247.141 20.4318 202.021 31.7318 171.361C45.8818 132.961 76.0018 95.7814 118.912 90.9514C119.772 90.8514 120.172 92.0014 119.432 92.4614H119.442Z" fill="white"/>
<path d="M249.292 238.461C256.012 238.071 260.482 245.391 256.982 251.141C235.162 286.951 177.852 272.301 145.322 254.971C115.972 239.341 92.432 215.161 89.042 181.001C88.982 180.351 89.872 180.111 90.142 180.701C92.992 186.841 96.042 191.411 99.972 196.521C114.702 215.671 143.672 231.941 167.012 237.481C194.012 243.891 221.872 240.061 249.282 238.451L249.292 238.461Z" fill="white"/>
<path d="M133.023 211.691C132.593 211.351 132.973 210.671 133.483 210.851C182.493 228.391 219.913 206.861 251.423 169.841C259.283 160.611 276.913 131.981 284.363 127.021C292.013 121.931 295.823 136.481 296.323 141.841C300.513 186.091 244.883 220.031 206.833 226.241C181.133 230.431 153.653 228.161 133.023 211.691Z" fill="white"/>
<path d="M162.912 87.3014C163.402 87.7814 162.872 88.5814 162.232 88.3414C117.742 71.7214 78.2619 90.2314 48.0419 123.551C37.0819 135.631 29.2619 150.021 19.2119 162.041C10.5919 172.351 2.79185 175.101 0.511853 158.521C-8.35815 93.9914 100.282 55.7814 153.572 80.9814C156.512 82.3714 160.492 84.8914 162.912 87.3014Z" fill="white"/>
<path d="M212.461 159.491C212.461 159.491 212.061 160.081 211.871 160.331C211.781 160.441 211.401 160.551 211.531 160.121C218.051 139.441 217.441 115.031 210.381 94.5215C197.921 58.3315 159.171 35.5215 130.721 12.8315C124.931 3.02147 143.461 0.0514683 149.531 0.00146831C178.621 -0.218532 200.891 24.3215 213.181 48.2515C231.841 84.6015 233.391 123.651 212.461 159.481V159.491Z" fill="white"/>
<path d="M85.4714 139.211C85.8214 138.751 86.5614 139.141 86.3714 139.691C80.7314 156.471 78.9714 172.751 82.1214 190.531C89.9314 234.661 131.411 257.831 163.291 283.771C164.431 284.701 165.311 285.951 165.631 287.381C167.601 296.181 149.271 298.461 142.961 298.081C109.921 296.081 82.6714 256.861 74.3614 227.741C66.1214 198.881 66.4714 163.641 85.4614 139.201L85.4714 139.211Z" fill="white"/>
</svg>
