<?xml version="1.0" encoding="UTF-8"?>
<svg xmlns="http://www.w3.org/2000/svg" xmlns:xlink="http://www.w3.org/1999/xlink" width="32px" height="32px" viewBox="0 0 32 32" version="1.1">
<g id="surface1">
<path style=" stroke:none;fill-rule:nonzero;fill:rgb(34.117648%,11.372549%,52.549022%);fill-opacity:1;" d="M 23.460938 2.609375 C 27 5.058594 29.234375 8.167969 30.214844 12.578125 C 30.84375 16.65625 29.953125 21.128906 27.824219 24.59375 C 25.472656 27.941406 22.210938 30.199219 18.363281 31.109375 C 13.585938 31.425781 9.765625 30.539062 5.929688 27.332031 C 3.074219 24.570312 1.351562 20.421875 1.050781 16.355469 C 0.925781 12.011719 2.214844 8.328125 4.972656 5.128906 C 9.960938 0.0507812 17.445312 -1.007812 23.460938 2.609375 Z M 23.460938 2.609375 "/>
<path style=" stroke:none;fill-rule:nonzero;fill:rgb(35.294119%,10.196079%,58.039218%);fill-opacity:1;" d="M 17.53125 5.925781 C 17.53125 6.121094 17.53125 6.316406 17.53125 6.519531 C 17.691406 6.535156 17.851562 6.554688 18.015625 6.574219 C 18.886719 6.90625 19.203125 7.53125 19.757812 8.296875 C 19.941406 8.296875 20.125 8.296875 20.3125 8.296875 C 20.3125 8.101562 20.3125 7.90625 20.3125 7.703125 C 20.773438 7.605469 21.230469 7.507812 21.703125 7.40625 C 21.703125 7.601562 21.703125 7.796875 21.703125 8 C 21.886719 8 22.070312 8 22.261719 8 C 23.390625 9.417969 24.117188 10.96875 24.601562 12.746094 C 24.761719 13.375 24.761719 13.375 25.113281 14.09375 C 25.421875 15.164062 25.355469 16.128906 25.042969 17.183594 C 24.578125 17.777344 24.117188 18.371094 23.652344 18.964844 C 23.566406 19.542969 23.566406 19.542969 23.566406 20.148438 C 23.511719 20.929688 23.429688 21.261719 22.964844 21.878906 C 21.648438 23.0625 20.59375 23.289062 18.894531 23.171875 C 18.71875 23.152344 18.546875 23.132812 18.363281 23.109375 C 18.273438 23.40625 18.179688 23.699219 18.085938 24 C 17.050781 24.101562 16.058594 24.15625 15.027344 24 C 14.347656 23.203125 14.347656 23.203125 13.914062 22.222656 C 13.730469 22.003906 13.546875 21.78125 13.355469 21.554688 C 12.554688 20.382812 12.164062 19.136719 11.6875 17.777344 C 11.59375 19.050781 11.503906 20.320312 11.410156 21.628906 C 10.296875 21.332031 10.296875 21.332031 9.945312 20.859375 C 9.300781 19.449219 9.058594 18.453125 9.183594 16.890625 C 9.003906 16.851562 8.828125 16.816406 8.644531 16.777344 C 8.453125 16.714844 8.265625 16.65625 8.070312 16.59375 C 7.617188 15.625 7.660156 15 7.792969 13.925781 C 8.917969 11.851562 10.445312 11.097656 12.523438 10.371094 C 11.417969 10.273438 10.316406 10.175781 9.183594 10.074219 C 9.527344 8.609375 9.527344 8.609375 10.296875 8 C 11.660156 7.65625 13.113281 7.566406 14.46875 8 C 14.46875 7.511719 14.46875 7.023438 14.46875 6.519531 C 15.535156 6.097656 16.394531 5.855469 17.53125 5.925781 Z M 17.53125 5.925781 "/>
<path style=" stroke:none;fill-rule:nonzero;fill:rgb(18.039216%,10.196079%,37.64706%);fill-opacity:1;" d="M 15.757812 0.535156 C 15.988281 0.539062 16.21875 0.539062 16.457031 0.539062 C 17.59375 0.546875 18.652344 0.589844 19.757812 0.890625 C 19.664062 1.28125 19.574219 1.671875 19.476562 2.074219 C 19.296875 2.074219 19.117188 2.070312 18.933594 2.070312 C 18.117188 2.0625 17.300781 2.058594 16.488281 2.054688 C 16.203125 2.054688 15.921875 2.050781 15.628906 2.046875 C 15.359375 2.046875 15.085938 2.046875 14.804688 2.046875 C 14.554688 2.042969 14.304688 2.042969 14.042969 2.039062 C 13.277344 2.054688 13.277344 2.054688 12.242188 2.371094 C 14.355469 2.371094 16.46875 2.371094 18.644531 2.371094 C 18.78125 2.664062 18.78125 2.664062 18.921875 2.964844 C 19.378906 3.269531 19.84375 3.570312 20.3125 3.851562 C 20.222656 4.046875 20.128906 4.242188 20.035156 4.445312 C 19.761719 4.398438 19.488281 4.351562 19.203125 4.300781 C 15.605469 3.761719 12.179688 3.871094 9.113281 6.148438 C 7.125 7.882812 5.671875 9.753906 5.007812 12.445312 C 4.921875 13.214844 4.921875 13.214844 5.007812 13.925781 C 5.578125 14.625 6.1875 15.21875 6.855469 15.8125 C 7.738281 16.652344 8.164062 17.203125 8.3125 18.480469 C 8.324219 18.835938 8.335938 19.191406 8.347656 19.554688 C 8.53125 19.554688 8.714844 19.554688 8.90625 19.554688 C 10.015625 20.84375 10.015625 20.84375 10.015625 21.925781 C 10.667969 22.324219 11.121094 22.519531 11.878906 22.59375 C 13.023438 22.867188 13.746094 23.4375 14.695312 24.148438 C 15.429688 24.683594 16.167969 25.085938 16.972656 25.480469 C 16.972656 25.675781 16.972656 25.871094 16.972656 26.074219 C 13.449219 26.242188 10.988281 26.136719 8.226562 23.535156 C 7.796875 23.105469 7.375 22.664062 6.957031 22.222656 C 6.792969 22.046875 6.628906 21.875 6.460938 21.695312 C 6.292969 21.515625 6.292969 21.515625 6.121094 21.332031 C 6.304688 21.625 6.488281 21.921875 6.679688 22.222656 C 6.574219 22.871094 6.574219 22.871094 6.398438 23.40625 C 7.894531 24.71875 9.332031 25.882812 11.128906 26.667969 C 11.324219 26.753906 11.519531 26.84375 11.722656 26.933594 C 13.488281 27.621094 15.152344 27.621094 17.003906 27.523438 C 17.941406 27.488281 18.527344 27.480469 19.339844 28 C 19.476562 28.148438 19.617188 28.292969 19.757812 28.445312 C 17.652344 29.433594 15.621094 29.367188 13.355469 29.332031 C 13.355469 29.136719 13.355469 28.941406 13.355469 28.742188 C 13.011719 28.828125 12.667969 28.910156 12.3125 29 C 10.457031 29.226562 9.042969 28.28125 7.511719 27.257812 C 6.730469 26.554688 6.730469 26.554688 6.121094 25.777344 C 5.976562 25.632812 5.835938 25.484375 5.6875 25.335938 C 3.730469 23.242188 2.050781 19.839844 1.667969 16.890625 C 1.394531 17.035156 1.394531 17.035156 1.113281 17.183594 C 0.921875 12.933594 1.730469 9.335938 4.25 5.96875 C 7.25 2.488281 11.3125 0.46875 15.757812 0.535156 Z M 15.757812 0.535156 "/>
<path style=" stroke:none;fill-rule:nonzero;fill:rgb(24.313726%,11.372549%,39.607844%);fill-opacity:1;" d="M 25.042969 6.816406 C 26.164062 6.816406 26.457031 7.199219 27.269531 8 C 29.367188 10.640625 29.601562 13.925781 29.636719 17.242188 C 29.640625 17.6875 29.640625 17.6875 29.648438 18.148438 C 29.625 21.648438 28.398438 24.152344 26.15625 26.667969 C 22.742188 30.058594 19.210938 31.3125 14.621094 31.203125 C 11.015625 31.011719 7.492188 29.160156 5.007812 26.371094 C 2.996094 23.789062 1.339844 20.535156 1.375 17.128906 C 1.375 16.808594 1.378906 16.484375 1.382812 16.152344 C 1.382812 15.90625 1.386719 15.660156 1.390625 15.40625 C 1.484375 15.40625 1.574219 15.40625 1.667969 15.40625 C 1.699219 15.628906 1.730469 15.847656 1.765625 16.074219 C 2.457031 20 4.070312 24.035156 7.234375 26.371094 C 7.417969 26.566406 7.601562 26.761719 7.792969 26.964844 C 9.539062 28.550781 11.128906 28.886719 13.355469 28.742188 C 13.355469 28.9375 13.355469 29.132812 13.355469 29.332031 C 14.175781 29.242188 14.992188 29.148438 15.808594 29.054688 C 16.039062 29.03125 16.273438 29.003906 16.511719 28.976562 C 16.734375 28.953125 16.957031 28.925781 17.1875 28.898438 C 17.496094 28.863281 17.496094 28.863281 17.8125 28.828125 C 18.421875 28.75 18.421875 28.75 19.199219 28.445312 C 18.175781 27.71875 17.46875 27.832031 16.296875 27.890625 C 12.679688 27.964844 9.304688 26.542969 6.578125 23.972656 C 6.351562 23.691406 6.351562 23.691406 6.121094 23.40625 C 6.207031 22.796875 6.207031 22.796875 6.398438 22.222656 C 6.308594 21.929688 6.214844 21.636719 6.121094 21.332031 C 7.027344 21.65625 7.152344 21.816406 7.703125 22.59375 C 9.066406 24.347656 10.921875 25.5625 13.074219 25.851562 C 13.664062 25.902344 14.257812 25.933594 14.851562 25.964844 C 15.058594 25.972656 15.261719 25.984375 15.472656 25.996094 C 15.972656 26.023438 16.472656 26.050781 16.972656 26.074219 C 16.972656 25.878906 16.972656 25.683594 16.972656 25.480469 C 16.710938 25.394531 16.445312 25.308594 16.175781 25.222656 C 15.304688 24.890625 15.304688 24.890625 14.746094 24.296875 C 15.34375 24.328125 15.941406 24.367188 16.539062 24.40625 C 17.039062 24.4375 17.039062 24.4375 17.546875 24.46875 C 17.816406 24.511719 18.085938 24.550781 18.363281 24.59375 C 18.457031 24.789062 18.550781 24.984375 18.644531 25.183594 C 20.160156 25.085938 21.066406 24.664062 22.316406 23.75 C 22.816406 23.40625 22.816406 23.40625 23.652344 23.109375 C 23.652344 22.914062 23.652344 22.71875 23.652344 22.519531 C 23.835938 22.519531 24.019531 22.519531 24.207031 22.519531 C 24.3125 22.289062 24.3125 22.289062 24.417969 22.054688 C 24.765625 21.332031 24.765625 21.332031 25.285156 20.464844 C 26.140625 18.902344 26.53125 17.132812 26.992188 15.40625 C 27.082031 15.40625 27.175781 15.40625 27.269531 15.40625 C 27.269531 15.992188 27.269531 16.582031 27.269531 17.183594 C 27.453125 17.183594 27.636719 17.183594 27.824219 17.183594 C 28.019531 14.160156 27.765625 11.628906 26.433594 8.890625 C 25.980469 8.386719 25.515625 7.890625 25.042969 7.40625 C 25.042969 7.210938 25.042969 7.015625 25.042969 6.816406 Z M 25.042969 6.816406 "/>
<path style=" stroke:none;fill-rule:nonzero;fill:rgb(52.549022%,21.960784%,74.117649%);fill-opacity:1;" d="M 14.46875 6.519531 C 16.019531 6.375 16.972656 6.4375 18.195312 7.507812 C 19.59375 9.046875 20.117188 10.46875 20.121094 12.609375 C 20.101562 13.148438 20.074219 13.6875 20.035156 14.222656 C 19.898438 13.78125 19.898438 13.78125 19.757812 13.332031 C 19.523438 13.441406 19.523438 13.441406 19.285156 13.554688 C 18.644531 13.628906 18.644531 13.628906 17.878906 13.09375 C 17.566406 12.773438 17.566406 12.773438 17.253906 12.445312 C 17.253906 12.25 17.253906 12.054688 17.253906 11.851562 C 17 11.914062 16.746094 11.972656 16.488281 12.035156 C 15.550781 12.152344 15.238281 12.089844 14.46875 11.554688 C 14.378906 11.847656 14.285156 12.140625 14.191406 12.445312 C 14.011719 12.535156 13.835938 12.628906 13.652344 12.722656 C 12.917969 13.125 12.808594 13.402344 12.523438 14.222656 C 12.460938 15.8125 12.597656 17.304688 13.21875 18.757812 C 14.183594 19.867188 15.269531 20.742188 16.417969 21.628906 C 16.789062 21.925781 17.160156 22.222656 17.53125 22.519531 C 17.4375 22.8125 17.347656 23.105469 17.253906 23.40625 C 15.40625 23.648438 15.40625 23.648438 14.492188 23.070312 C 12.980469 21.605469 12.386719 19.789062 11.6875 17.777344 C 11.59375 19.050781 11.503906 20.320312 11.410156 21.628906 C 10.296875 21.332031 10.296875 21.332031 9.945312 20.859375 C 9.300781 19.449219 9.058594 18.453125 9.183594 16.890625 C 9.003906 16.851562 8.828125 16.816406 8.644531 16.777344 C 8.453125 16.714844 8.265625 16.65625 8.070312 16.59375 C 7.617188 15.625 7.660156 15 7.792969 13.925781 C 8.917969 11.851562 10.445312 11.097656 12.523438 10.371094 C 11.417969 10.273438 10.316406 10.175781 9.183594 10.074219 C 9.527344 8.609375 9.527344 8.609375 10.296875 8 C 11.660156 7.65625 13.113281 7.566406 14.46875 8 C 14.46875 7.511719 14.46875 7.023438 14.46875 6.519531 Z M 14.46875 6.519531 "/>
<path style=" stroke:none;fill-rule:nonzero;fill:rgb(57.647061%,31.37255%,75.686276%);fill-opacity:1;" d="M 20.3125 8 C 21.242188 8.273438 21.671875 8.554688 22.3125 9.332031 C 22.949219 10.636719 23.171875 11.890625 23.375 13.332031 C 23.648438 13.332031 23.925781 13.332031 24.207031 13.332031 C 24.339844 15.253906 24.058594 16.714844 23.09375 18.371094 C 22.820312 18.566406 22.542969 18.761719 22.261719 18.964844 C 22.398438 19.84375 22.398438 19.84375 22.539062 20.742188 C 21.347656 21.902344 20.261719 21.757812 18.714844 21.714844 C 16.570312 21.515625 15.113281 20.613281 13.636719 18.964844 C 13.078125 18.167969 13.078125 18.167969 12.800781 17.480469 C 12.9375 17.042969 12.9375 17.042969 13.078125 16.59375 C 13.238281 16.886719 13.398438 17.179688 13.566406 17.480469 C 14.132812 18.230469 14.394531 18.359375 15.304688 18.488281 C 16.144531 18.480469 16.972656 18.445312 17.808594 18.371094 C 17.808594 18.175781 17.808594 17.980469 17.808594 17.777344 C 18.0625 17.617188 18.3125 17.460938 18.574219 17.296875 C 19.707031 16.507812 20.242188 15.609375 20.589844 14.222656 C 20.75 12.140625 20.679688 10.054688 20.3125 8 Z M 20.3125 8 "/>
<path style=" stroke:none;fill-rule:nonzero;fill:rgb(28.627452%,15.294118%,49.803922%);fill-opacity:1;" d="M 18.644531 1.183594 C 21.367188 1.007812 23.820312 2.558594 25.859375 4.390625 C 28.429688 7.03125 30.175781 10.378906 30.378906 14.226562 C 30.386719 16.203125 30.261719 17.941406 29.773438 19.851562 C 29.683594 19.851562 29.589844 19.851562 29.496094 19.851562 C 29.496094 19.6875 29.492188 19.519531 29.492188 19.351562 C 29.441406 13.226562 29.441406 13.226562 26.90625 7.871094 C 26.65625 7.621094 26.410156 7.371094 26.15625 7.109375 C 25.882812 7.207031 25.605469 7.308594 25.320312 7.40625 C 25.539062 7.621094 25.757812 7.835938 25.984375 8.054688 C 27.105469 9.335938 27.34375 10.359375 27.304688 12.09375 C 27.300781 12.382812 27.292969 12.671875 27.289062 12.96875 C 27.28125 13.1875 27.277344 13.40625 27.269531 13.628906 C 27.085938 13.335938 26.902344 13.042969 26.714844 12.742188 C 26.53125 12.546875 26.347656 12.351562 26.15625 12.148438 C 26.066406 12.148438 25.972656 12.148438 25.878906 12.148438 C 25.847656 11.972656 25.816406 11.796875 25.785156 11.617188 C 25.71875 11.265625 25.71875 11.265625 25.652344 10.90625 C 25.609375 10.675781 25.566406 10.445312 25.523438 10.210938 C 25.046875 8.496094 24.171875 7.648438 22.835938 6.609375 C 22.546875 6.382812 22.253906 6.15625 21.957031 5.921875 C 21.195312 5.335938 21.195312 5.335938 20.496094 4.996094 C 20.34375 4.910156 20.191406 4.828125 20.035156 4.742188 C 19.941406 4.34375 19.847656 3.949219 19.757812 3.554688 C 19.203125 3.175781 19.203125 3.175781 18.644531 2.964844 C 18.644531 2.765625 18.644531 2.570312 18.644531 2.371094 C 18.398438 2.390625 18.152344 2.414062 17.898438 2.433594 C 15.824219 2.605469 13.769531 2.707031 11.6875 2.667969 C 12.53125 1.765625 13.363281 1.742188 14.523438 1.738281 C 14.738281 1.738281 14.957031 1.738281 15.179688 1.738281 C 15.40625 1.738281 15.628906 1.738281 15.859375 1.742188 C 16.085938 1.738281 16.308594 1.738281 16.542969 1.738281 C 16.757812 1.738281 16.976562 1.738281 17.199219 1.738281 C 17.496094 1.738281 17.496094 1.738281 17.796875 1.738281 C 18.386719 1.777344 18.910156 1.902344 19.476562 2.074219 C 19.476562 1.878906 19.476562 1.683594 19.476562 1.480469 C 19.203125 1.382812 18.925781 1.285156 18.644531 1.183594 Z M 18.644531 1.183594 "/>
<path style=" stroke:none;fill-rule:nonzero;fill:rgb(9.803922%,6.27451%,30.980393%);fill-opacity:1;" d="M 3.0625 10.667969 C 3.617188 11.257812 3.617188 11.257812 3.664062 11.851562 C 3.652344 12.089844 3.644531 12.328125 3.632812 12.574219 C 3.625 12.835938 3.617188 13.101562 3.609375 13.375 C 3.601562 13.652344 3.589844 13.933594 3.582031 14.222656 C 3.546875 16.550781 3.59375 18.394531 4.730469 20.445312 C 4.847656 20.695312 4.964844 20.945312 5.089844 21.203125 C 6.433594 23.882812 8.519531 25.527344 11.128906 26.667969 C 11.324219 26.753906 11.519531 26.84375 11.722656 26.933594 C 13.488281 27.621094 15.152344 27.621094 17.003906 27.523438 C 17.941406 27.488281 18.527344 27.480469 19.339844 28 C 19.476562 28.148438 19.617188 28.292969 19.757812 28.445312 C 17.652344 29.433594 15.621094 29.367188 13.355469 29.332031 C 13.355469 29.136719 13.355469 28.941406 13.355469 28.742188 C 13.011719 28.828125 12.667969 28.910156 12.3125 29 C 10.457031 29.226562 9.042969 28.28125 7.511719 27.257812 C 6.730469 26.554688 6.730469 26.554688 6.121094 25.777344 C 5.976562 25.632812 5.835938 25.484375 5.6875 25.335938 C 3.730469 23.242188 2.050781 19.839844 1.667969 16.890625 C 1.484375 16.988281 1.300781 17.085938 1.113281 17.183594 C 1.113281 16.5 1.113281 15.816406 1.113281 15.109375 C 1.480469 15.011719 1.847656 14.914062 2.226562 14.816406 C 2.238281 14.613281 2.253906 14.414062 2.265625 14.207031 C 2.296875 13.8125 2.296875 13.8125 2.332031 13.40625 C 2.351562 13.144531 2.371094 12.886719 2.390625 12.617188 C 2.503906 11.855469 2.703125 11.332031 3.0625 10.667969 Z M 3.0625 10.667969 "/>
<path style=" stroke:none;fill-rule:nonzero;fill:rgb(15.686275%,7.058824%,35.686275%);fill-opacity:1;" d="M 5.007812 14.519531 C 6.207031 15.195312 7.289062 15.992188 8.070312 17.183594 C 8.285156 18.007812 8.320312 18.695312 8.347656 19.554688 C 8.53125 19.554688 8.714844 19.554688 8.90625 19.554688 C 10.015625 20.84375 10.015625 20.84375 10.015625 21.925781 C 10.667969 22.324219 11.121094 22.519531 11.878906 22.59375 C 13.023438 22.867188 13.746094 23.4375 14.695312 24.148438 C 15.429688 24.683594 16.167969 25.085938 16.972656 25.480469 C 16.972656 25.675781 16.972656 25.871094 16.972656 26.074219 C 13.449219 26.242188 10.988281 26.136719 8.226562 23.535156 C 7.796875 23.105469 7.375 22.664062 6.957031 22.222656 C 6.792969 22.046875 6.628906 21.875 6.460938 21.695312 C 6.347656 21.574219 6.238281 21.457031 6.121094 21.332031 C 6.304688 21.625 6.488281 21.921875 6.679688 22.222656 C 6.585938 22.515625 6.496094 22.808594 6.398438 23.109375 C 4.898438 20.566406 4.058594 18.734375 4.175781 15.703125 C 4.265625 15.703125 4.359375 15.703125 4.453125 15.703125 C 4.542969 16.289062 4.636719 16.878906 4.730469 17.480469 C 4.820312 16.503906 4.914062 15.527344 5.007812 14.519531 Z M 5.007812 14.519531 "/>
<path style=" stroke:none;fill-rule:nonzero;fill:rgb(26.274511%,11.372549%,43.529412%);fill-opacity:1;" d="M 15.757812 0.535156 C 15.988281 0.539062 16.21875 0.539062 16.457031 0.539062 C 17.59375 0.546875 18.652344 0.589844 19.757812 0.890625 C 19.664062 1.28125 19.574219 1.671875 19.476562 2.074219 C 19.296875 2.074219 19.117188 2.070312 18.933594 2.070312 C 18.117188 2.0625 17.300781 2.058594 16.488281 2.054688 C 16.203125 2.054688 15.921875 2.050781 15.628906 2.046875 C 15.359375 2.046875 15.085938 2.046875 14.804688 2.046875 C 14.554688 2.042969 14.304688 2.042969 14.042969 2.039062 C 13.277344 2.054688 13.277344 2.054688 12.242188 2.371094 C 14.355469 2.371094 16.46875 2.371094 18.644531 2.371094 C 18.78125 2.664062 18.78125 2.664062 18.921875 2.964844 C 19.378906 3.269531 19.84375 3.570312 20.3125 3.851562 C 19.589844 4.238281 19.316406 4.074219 18.539062 3.871094 C 16.109375 3.324219 13.800781 3.414062 11.398438 4.046875 C 10.851562 4.148438 10.851562 4.148438 10.296875 3.851562 C 9.8125 4.128906 9.332031 4.40625 8.863281 4.710938 C 8.347656 5.035156 8.347656 5.035156 7.804688 5.316406 C 7.167969 5.667969 6.605469 6.082031 6.015625 6.519531 C 5.058594 7.210938 4.191406 7.691406 3.0625 8 C 5.148438 4.234375 8.300781 2.261719 12.074219 0.828125 C 13.320312 0.535156 14.484375 0.515625 15.757812 0.535156 Z M 15.757812 0.535156 "/>
<path style=" stroke:none;fill-rule:nonzero;fill:rgb(19.215687%,14.117648%,41.568628%);fill-opacity:1;" d="M 1.390625 15.40625 C 1.484375 15.40625 1.574219 15.40625 1.667969 15.40625 C 1.699219 15.628906 1.730469 15.847656 1.765625 16.074219 C 2.457031 20 4.070312 24.035156 7.234375 26.371094 C 7.417969 26.566406 7.601562 26.761719 7.792969 26.964844 C 9.621094 28.675781 11.953125 29.328125 14.335938 29.425781 C 14.621094 29.441406 14.90625 29.453125 15.199219 29.464844 C 15.492188 29.476562 15.785156 29.488281 16.085938 29.5 C 16.535156 29.519531 16.535156 29.519531 16.992188 29.539062 C 17.730469 29.570312 18.464844 29.601562 19.199219 29.628906 C 18.921875 30.519531 18.921875 30.519531 18.332031 30.863281 C 15.210938 31.828125 11.800781 31.023438 8.964844 29.515625 C 4.917969 27.042969 2.855469 23.640625 1.390625 18.964844 C 1.371094 18.351562 1.367188 17.742188 1.375 17.128906 C 1.375 16.808594 1.378906 16.484375 1.382812 16.152344 C 1.382812 15.90625 1.386719 15.660156 1.390625 15.40625 Z M 1.390625 15.40625 "/>
<path style=" stroke:none;fill-rule:nonzero;fill:rgb(41.568628%,12.54902%,61.176473%);fill-opacity:1;" d="M 21.703125 7.40625 C 21.703125 7.601562 21.703125 7.796875 21.703125 8 C 21.886719 8 22.070312 8 22.261719 8 C 23.390625 9.417969 24.117188 10.96875 24.601562 12.746094 C 24.761719 13.375 24.761719 13.375 25.113281 14.09375 C 25.421875 15.164062 25.355469 16.128906 25.042969 17.183594 C 24.578125 17.777344 24.117188 18.371094 23.652344 18.964844 C 23.566406 19.542969 23.566406 19.542969 23.566406 20.148438 C 23.511719 20.929688 23.429688 21.261719 22.964844 21.878906 C 21.648438 23.0625 20.59375 23.289062 18.894531 23.171875 C 18.71875 23.152344 18.546875 23.132812 18.363281 23.109375 C 18.273438 23.40625 18.179688 23.699219 18.085938 24 C 17.078125 24 16.066406 24 15.027344 24 C 15.027344 23.707031 15.027344 23.414062 15.027344 23.109375 C 15.761719 23.109375 16.496094 23.109375 17.253906 23.109375 C 16.90625 22.007812 16.558594 21.859375 15.652344 21.242188 C 14.46875 20.394531 13.636719 19.589844 12.800781 18.371094 C 13.074219 18.371094 13.351562 18.371094 13.636719 18.371094 C 14.015625 18.855469 14.386719 19.351562 14.746094 19.851562 C 16.417969 21.507812 18.46875 21.402344 20.621094 21.410156 C 21.480469 21.398438 21.480469 21.398438 22.261719 20.742188 C 22.460938 20.128906 22.460938 20.128906 22.539062 19.554688 C 22.078125 19.554688 21.621094 19.554688 21.148438 19.554688 C 21.804688 18.808594 22.167969 18.402344 23.09375 18.074219 C 23.777344 16.484375 24.0625 15.066406 24.207031 13.332031 C 23.839844 13.429688 23.472656 13.527344 23.09375 13.628906 C 23.03125 13.238281 23.03125 13.238281 22.960938 12.839844 C 22.5 10.195312 22.5 10.195312 20.871094 8.296875 C 20.6875 8.101562 20.503906 7.90625 20.3125 7.703125 C 20.871094 7.40625 20.871094 7.40625 21.703125 7.40625 Z M 21.703125 7.40625 "/>
<path style=" stroke:none;fill-rule:nonzero;fill:rgb(25.882354%,14.509805%,52.156866%);fill-opacity:1;" d="M 6.121094 21.332031 C 7.027344 21.65625 7.152344 21.816406 7.703125 22.59375 C 9.066406 24.347656 10.921875 25.5625 13.074219 25.851562 C 13.664062 25.902344 14.257812 25.933594 14.851562 25.964844 C 15.160156 25.980469 15.160156 25.980469 15.472656 25.996094 C 15.972656 26.023438 16.472656 26.050781 16.972656 26.074219 C 16.972656 25.878906 16.972656 25.683594 16.972656 25.480469 C 16.710938 25.394531 16.445312 25.308594 16.175781 25.222656 C 15.304688 24.890625 15.304688 24.890625 14.746094 24.296875 C 15.34375 24.328125 15.941406 24.367188 16.539062 24.40625 C 17.039062 24.4375 17.039062 24.4375 17.546875 24.46875 C 17.953125 24.53125 17.953125 24.53125 18.363281 24.59375 C 18.503906 24.886719 18.503906 24.886719 18.644531 25.183594 C 19.289062 25.304688 19.9375 25.40625 20.589844 25.480469 C 20.589844 25.675781 20.589844 25.871094 20.589844 26.074219 C 20.773438 26.171875 20.957031 26.269531 21.148438 26.371094 C 20.964844 26.761719 20.78125 27.152344 20.589844 27.554688 C 20.316406 27.457031 20.039062 27.359375 19.757812 27.257812 C 19.445312 27.351562 19.136719 27.441406 18.816406 27.535156 C 15.167969 28.570312 11.960938 27.546875 8.765625 25.628906 C 7.753906 24.992188 6.890625 24.363281 6.121094 23.40625 C 6.207031 22.796875 6.207031 22.796875 6.398438 22.222656 C 6.308594 21.929688 6.214844 21.636719 6.121094 21.332031 Z M 6.121094 21.332031 "/>
<path style=" stroke:none;fill-rule:nonzero;fill:rgb(72.941178%,53.333336%,86.274511%);fill-opacity:1;" d="M 9.183594 9.777344 C 10.15625 9.742188 11.128906 9.722656 12.105469 9.703125 C 12.378906 9.695312 12.652344 9.683594 12.933594 9.671875 C 14.789062 9.648438 15.9375 9.9375 17.53125 10.964844 C 16.738281 11.1875 16.054688 11.292969 15.234375 11.277344 C 14.71875 11.269531 14.71875 11.269531 14.191406 11.257812 C 14.097656 11.453125 14.007812 11.648438 13.914062 11.851562 C 13.550781 11.945312 13.550781 11.945312 13.183594 12.035156 C 11.65625 12.699219 10.714844 14.027344 9.914062 15.535156 C 9.652344 16.667969 9.550781 17.804688 9.460938 18.964844 C 9.367188 18.964844 9.277344 18.964844 9.183594 18.964844 C 9.183594 18.277344 9.183594 17.59375 9.183594 16.890625 C 9.003906 16.851562 8.828125 16.816406 8.644531 16.777344 C 8.359375 16.6875 8.359375 16.6875 8.070312 16.59375 C 7.617188 15.625 7.660156 15 7.792969 13.925781 C 8.917969 11.851562 10.445312 11.097656 12.523438 10.371094 C 11.417969 10.273438 10.316406 10.175781 9.183594 10.074219 C 9.183594 9.976562 9.183594 9.878906 9.183594 9.777344 Z M 9.183594 9.777344 "/>
<path style=" stroke:none;fill-rule:nonzero;fill:rgb(28.627452%,10.980392%,52.549022%);fill-opacity:1;" d="M 11.410156 16 C 11.5 16 11.59375 16 11.6875 16 C 11.730469 16.230469 11.773438 16.457031 11.820312 16.695312 C 12.277344 18.867188 12.8125 20.800781 14.355469 22.378906 C 14.746094 22.816406 14.746094 22.816406 15.027344 23.703125 C 16.035156 23.703125 17.046875 23.703125 18.085938 23.703125 C 18.179688 23.507812 18.269531 23.3125 18.363281 23.109375 C 18.824219 23.109375 19.285156 23.109375 19.757812 23.109375 C 19.480469 23.257812 19.480469 23.257812 19.199219 23.40625 C 19.199219 23.601562 19.199219 23.796875 19.199219 24 C 19.566406 24.195312 19.933594 24.390625 20.3125 24.59375 C 20.3125 24.789062 20.3125 24.984375 20.3125 25.183594 C 19.488281 25.332031 19.488281 25.332031 18.644531 25.480469 C 18.550781 25.1875 18.460938 24.894531 18.363281 24.59375 C 18.183594 24.597656 18.003906 24.605469 17.816406 24.613281 C 15.953125 24.65625 14.640625 24.523438 13.0625 23.390625 C 12.261719 22.828125 11.777344 22.679688 10.851562 22.519531 C 10.015625 21.925781 10.015625 21.925781 9.824219 21.148438 C 9.796875 20.914062 9.769531 20.683594 9.738281 20.445312 C 9.859375 20.585938 9.980469 20.726562 10.105469 20.871094 C 10.582031 21.402344 10.582031 21.402344 11.410156 21.628906 C 11.410156 19.773438 11.410156 17.914062 11.410156 16 Z M 11.410156 16 "/>
<path style=" stroke:none;fill-rule:nonzero;fill:rgb(37.254903%,12.54902%,61.56863%);fill-opacity:1;" d="M 8.90625 9.480469 C 8.996094 9.675781 9.089844 9.871094 9.183594 10.074219 C 11.109375 10.074219 13.039062 10.074219 15.027344 10.074219 C 15.027344 10.171875 15.027344 10.269531 15.027344 10.371094 C 14.703125 10.414062 14.703125 10.414062 14.375 10.457031 C 12.152344 10.796875 10.226562 11.203125 8.625 12.980469 C 7.96875 14.09375 7.929688 14.707031 8.070312 16 C 8.160156 16.195312 8.253906 16.390625 8.347656 16.59375 C 8.625 16.691406 8.898438 16.789062 9.183594 16.890625 C 9.367188 18.0625 9.550781 19.234375 9.738281 20.445312 C 9.464844 20.589844 9.464844 20.589844 9.183594 20.742188 C 9.089844 20.351562 9 19.957031 8.90625 19.554688 C 8.71875 19.554688 8.535156 19.554688 8.347656 19.554688 C 8.300781 19.375 8.253906 19.199219 8.203125 19.015625 C 7.789062 17.488281 7.789062 17.488281 6.90625 16.242188 C 6.398438 15.703125 6.398438 15.703125 6.332031 14.742188 C 6.351562 14.472656 6.375 14.203125 6.398438 13.925781 C 6.570312 13.914062 6.746094 13.902344 6.921875 13.890625 C 7.117188 13.804688 7.3125 13.71875 7.511719 13.628906 C 7.839844 12.839844 7.839844 12.839844 8.070312 11.851562 C 8.214844 11.417969 8.367188 10.984375 8.523438 10.554688 C 8.648438 10.199219 8.773438 9.847656 8.90625 9.480469 Z M 8.90625 9.480469 "/>
<path style=" stroke:none;fill-rule:nonzero;fill:rgb(96.470588%,94.901961%,96.078432%);fill-opacity:1;" d="M 12.800781 16.59375 C 12.972656 16.804688 13.144531 17.019531 13.320312 17.242188 C 15.960938 19.941406 19.085938 19.824219 22.539062 19.851562 C 22.453125 20.40625 22.453125 20.40625 22.261719 21.035156 C 20.796875 22.074219 18.835938 21.84375 17.144531 21.492188 C 15.4375 20.890625 14.136719 19.707031 13.09375 18.167969 C 12.800781 17.480469 12.800781 17.480469 12.800781 16.59375 Z M 12.800781 16.59375 "/>
<path style=" stroke:none;fill-rule:nonzero;fill:rgb(95.686275%,94.509804%,95.686275%);fill-opacity:1;" d="M 17.511719 9.757812 C 18.128906 10.414062 18.550781 11.015625 18.921875 11.851562 C 18.828125 12.046875 18.738281 12.242188 18.644531 12.445312 C 18.519531 12.324219 18.394531 12.203125 18.265625 12.078125 C 18.097656 11.917969 17.929688 11.757812 17.757812 11.59375 C 17.59375 11.433594 17.425781 11.277344 17.257812 11.113281 C 16.183594 10.257812 15.152344 10 13.828125 9.953125 C 13.558594 9.941406 13.285156 9.929688 13.007812 9.917969 C 12.726562 9.90625 12.445312 9.898438 12.15625 9.890625 C 11.871094 9.878906 11.585938 9.867188 11.289062 9.855469 C 10.589844 9.828125 9.886719 9.800781 9.183594 9.777344 C 9.503906 9.046875 9.753906 8.578125 10.296875 8 C 12.714844 7.121094 15.492188 8.339844 17.511719 9.757812 Z M 17.511719 9.757812 "/>
<path style=" stroke:none;fill-rule:nonzero;fill:rgb(96.078432%,95.294118%,96.470588%);fill-opacity:1;" d="M 20.3125 8 C 21.410156 8.378906 21.933594 8.726562 22.539062 9.777344 C 22.898438 11.945312 22.453125 14.1875 21.324219 16.023438 C 20.671875 16.90625 20.253906 17.40625 19.234375 17.757812 C 19.039062 17.765625 18.84375 17.769531 18.644531 17.777344 C 18.988281 17.285156 19.332031 16.792969 19.675781 16.300781 C 21.128906 13.878906 20.800781 10.726562 20.3125 8 Z M 20.3125 8 "/>
<path style=" stroke:none;fill-rule:nonzero;fill:rgb(96.470588%,95.686275%,96.470588%);fill-opacity:1;" d="M 13.355469 11.554688 C 13.539062 11.652344 13.722656 11.75 13.914062 11.851562 C 13.707031 12.046875 13.5 12.242188 13.285156 12.445312 C 12.019531 13.816406 11.347656 15.292969 11.300781 17.230469 C 11.308594 17.757812 11.320312 18.289062 11.339844 18.816406 C 11.34375 19.085938 11.347656 19.359375 11.355469 19.640625 C 11.367188 20.304688 11.386719 20.964844 11.410156 21.628906 C 10.355469 21.414062 10.355469 21.414062 9.816406 20.683594 C 9.136719 19.09375 9.210938 17.285156 9.632812 15.609375 C 10.351562 13.867188 11.757812 12.40625 13.355469 11.554688 Z M 13.355469 11.554688 "/>
<path style=" stroke:none;fill-rule:nonzero;fill:rgb(95.686275%,93.725491%,95.686275%);fill-opacity:1;" d="M 23.375 13.332031 C 23.648438 13.332031 23.925781 13.332031 24.207031 13.332031 C 24.335938 16.003906 24.335938 16.003906 23.375 17.183594 C 21.648438 18.609375 20.382812 19.300781 18.191406 19.316406 C 17.789062 19.320312 17.789062 19.320312 17.378906 19.328125 C 16.695312 19.257812 16.695312 19.257812 16.140625 18.667969 C 16.292969 18.664062 16.449219 18.660156 16.609375 18.652344 C 18.84375 18.503906 20.3125 17.628906 21.792969 15.851562 C 22.265625 15.226562 22.628906 14.644531 23.007812 13.945312 C 23.191406 13.640625 23.191406 13.640625 23.375 13.332031 Z M 23.375 13.332031 "/>
<path style=" stroke:none;fill-rule:nonzero;fill:rgb(38.431373%,19.215687%,57.647061%);fill-opacity:1;" d="M 26.15625 5.628906 C 26.714844 5.925781 26.714844 5.925781 27.269531 6.816406 C 27.546875 6.914062 27.820312 7.011719 28.105469 7.109375 C 30.242188 10.679688 30.910156 14.613281 30.050781 18.757812 C 29.960938 19.121094 29.867188 19.480469 29.773438 19.851562 C 29.683594 19.851562 29.589844 19.851562 29.496094 19.851562 C 29.496094 19.6875 29.492188 19.519531 29.492188 19.351562 C 29.4375 14.839844 29.324219 10.484375 26.15625 7.109375 C 26.15625 6.914062 26.15625 6.71875 26.15625 6.519531 C 25.972656 6.519531 25.789062 6.519531 25.601562 6.519531 C 25.601562 6.324219 25.601562 6.128906 25.601562 5.925781 C 25.785156 5.828125 25.96875 5.730469 26.15625 5.628906 Z M 26.15625 5.628906 "/>
<path style=" stroke:none;fill-rule:nonzero;fill:rgb(46.27451%,14.901961%,65.882355%);fill-opacity:1;" d="M 17.53125 5.925781 C 17.53125 6.121094 17.53125 6.316406 17.53125 6.519531 C 17.691406 6.535156 17.851562 6.554688 18.015625 6.574219 C 18.886719 6.90625 19.203125 7.53125 19.757812 8.296875 C 19.941406 8.296875 20.125 8.296875 20.3125 8.296875 C 21.070312 10.414062 21.273438 12.804688 20.648438 14.996094 C 20.195312 16.007812 19.800781 16.558594 18.921875 17.183594 C 18.472656 16.234375 18.75 15.238281 18.921875 14.222656 C 19.011719 13.929688 19.105469 13.636719 19.199219 13.332031 C 19.382812 13.332031 19.566406 13.332031 19.757812 13.332031 C 19.945312 11.257812 19.609375 10.117188 18.589844 8.34375 C 17.511719 6.96875 16.378906 6.6875 14.746094 6.519531 C 14.746094 6.421875 14.746094 6.324219 14.746094 6.222656 C 15.695312 5.992188 16.558594 5.894531 17.53125 5.925781 Z M 17.53125 5.925781 "/>
<path style=" stroke:none;fill-rule:nonzero;fill:rgb(95.686275%,93.725491%,95.686275%);fill-opacity:1;" d="M 11.964844 15.109375 C 12.058594 15.109375 12.148438 15.109375 12.242188 15.109375 C 12.269531 15.28125 12.296875 15.453125 12.324219 15.632812 C 12.855469 18.574219 14.203125 19.914062 16.417969 21.628906 C 16.789062 21.925781 17.160156 22.222656 17.53125 22.519531 C 17.4375 22.8125 17.347656 23.105469 17.253906 23.40625 C 15.386719 23.652344 15.386719 23.652344 14.484375 23.039062 C 13.003906 21.558594 12.050781 19.882812 11.898438 17.707031 C 11.894531 16.835938 11.914062 15.976562 11.964844 15.109375 Z M 11.964844 15.109375 "/>
<path style=" stroke:none;fill-rule:nonzero;fill:rgb(95.294118%,94.117647%,95.686275%);fill-opacity:1;" d="M 14.46875 6.519531 C 16.019531 6.375 16.972656 6.4375 18.195312 7.507812 C 19.59375 9.046875 20.117188 10.46875 20.121094 12.609375 C 20.101562 13.148438 20.074219 13.6875 20.035156 14.222656 C 19.941406 14.222656 19.851562 14.222656 19.757812 14.222656 C 19.710938 14.027344 19.660156 13.828125 19.613281 13.625 C 19.050781 11.441406 18.476562 10.183594 16.625 8.980469 C 16.429688 8.863281 16.234375 8.746094 16.03125 8.625 C 15.882812 8.515625 15.734375 8.410156 15.582031 8.296875 C 15.582031 8.101562 15.582031 7.90625 15.582031 7.703125 C 15.214844 7.605469 14.847656 7.507812 14.46875 7.40625 C 14.46875 7.113281 14.46875 6.820312 14.46875 6.519531 Z M 14.46875 6.519531 "/>
<path style=" stroke:none;fill-rule:nonzero;fill:rgb(31.764707%,11.372549%,56.470591%);fill-opacity:1;" d="M 18.644531 1.183594 C 20.121094 1.125 21.289062 1.125 22.433594 2.203125 C 22.625 2.433594 22.625 2.433594 22.816406 2.667969 C 22.972656 2.832031 23.128906 2.996094 23.285156 3.167969 C 23.40625 3.296875 23.527344 3.421875 23.652344 3.554688 C 23.285156 3.457031 22.917969 3.359375 22.539062 3.257812 C 23.101562 3.859375 23.824219 4.273438 24.488281 4.742188 C 24.304688 4.839844 24.121094 4.9375 23.929688 5.035156 C 23.28125 4.722656 22.660156 4.394531 22.035156 4.035156 C 20.304688 3.050781 18.957031 2.628906 16.984375 2.636719 C 16.675781 2.640625 16.367188 2.640625 16.046875 2.640625 C 15.726562 2.644531 15.40625 2.644531 15.078125 2.648438 C 14.753906 2.648438 14.425781 2.652344 14.09375 2.652344 C 13.289062 2.65625 12.488281 2.660156 11.6875 2.667969 C 12.53125 1.765625 13.363281 1.742188 14.523438 1.738281 C 14.738281 1.738281 14.957031 1.738281 15.179688 1.738281 C 15.40625 1.738281 15.628906 1.738281 15.859375 1.742188 C 16.085938 1.738281 16.308594 1.738281 16.542969 1.738281 C 16.757812 1.738281 16.976562 1.738281 17.199219 1.738281 C 17.496094 1.738281 17.496094 1.738281 17.796875 1.738281 C 18.386719 1.777344 18.910156 1.902344 19.476562 2.074219 C 19.476562 1.878906 19.476562 1.683594 19.476562 1.480469 C 19.203125 1.382812 18.925781 1.285156 18.644531 1.183594 Z M 18.644531 1.183594 "/>
<path style=" stroke:none;fill-rule:nonzero;fill:rgb(96.470588%,95.686275%,96.078432%);fill-opacity:1;" d="M 15.582031 10.667969 C 15.582031 10.765625 15.582031 10.863281 15.582031 10.964844 C 15.308594 11.007812 15.308594 11.007812 15.03125 11.050781 C 12.542969 11.503906 11.242188 12.507812 9.632812 14.546875 C 9.140625 15.164062 8.617188 15.734375 8.070312 16.296875 C 7.792969 16 7.792969 16 7.652344 15.09375 C 7.847656 13.4375 8.585938 12.636719 9.738281 11.554688 C 11.53125 10.308594 13.5 10.582031 15.582031 10.667969 Z M 15.582031 10.667969 "/>
<path style=" stroke:none;fill-rule:nonzero;fill:rgb(28.235295%,15.294118%,51.764709%);fill-opacity:1;" d="M 15.566406 0.554688 C 15.78125 0.558594 16 0.5625 16.222656 0.5625 C 16.75 0.570312 17.28125 0.582031 17.808594 0.59375 C 17.808594 0.789062 17.808594 0.984375 17.808594 1.183594 C 17.355469 1.195312 17.355469 1.195312 16.890625 1.207031 C 13 1.351562 9.53125 2.136719 6.460938 4.886719 C 6.035156 5.351562 6.035156 5.351562 6.121094 6.222656 C 5.1875 7.1875 4.308594 7.628906 3.0625 8 C 5.148438 4.234375 8.304688 2.25 12.085938 0.824219 C 13.269531 0.546875 14.359375 0.527344 15.566406 0.554688 Z M 15.566406 0.554688 "/>
<path style=" stroke:none;fill-rule:nonzero;fill:rgb(53.333336%,40.000001%,72.156864%);fill-opacity:1;" d="M 10.015625 28.742188 C 10.261719 28.800781 10.261719 28.800781 10.507812 28.863281 C 12.402344 29.308594 14.238281 29.457031 16.175781 29.519531 C 16.613281 29.535156 16.613281 29.535156 17.0625 29.554688 C 17.773438 29.582031 18.488281 29.605469 19.199219 29.628906 C 18.921875 30.519531 18.921875 30.519531 18.332031 30.859375 C 16.363281 31.476562 14.238281 31.503906 12.339844 30.65625 C 11.527344 30.15625 10.757812 29.652344 10.015625 29.035156 C 10.015625 28.9375 10.015625 28.839844 10.015625 28.742188 Z M 10.015625 28.742188 "/>
<path style=" stroke:none;fill-rule:nonzero;fill:rgb(21.176471%,12.54902%,46.27451%);fill-opacity:1;" d="M 3.617188 12.148438 C 4.476562 12.757812 4.585938 12.996094 5.007812 13.925781 C 5.191406 14.023438 5.375 14.121094 5.566406 14.222656 C 5.472656 14.417969 5.382812 14.613281 5.285156 14.816406 C 5.222656 15.46875 5.171875 16.121094 5.128906 16.777344 C 5.105469 17.128906 5.082031 17.480469 5.058594 17.84375 C 5.042969 18.117188 5.027344 18.386719 5.007812 18.667969 C 4.824219 18.277344 4.640625 17.882812 4.453125 17.480469 C 4.675781 18.875 4.921875 20.097656 5.617188 21.316406 C 5.867188 21.765625 5.867188 21.765625 6.121094 22.222656 C 6.03125 22.417969 5.9375 22.613281 5.84375 22.816406 C 3.707031 19.480469 3.070312 16.734375 3.339844 12.742188 C 3.429688 12.546875 3.523438 12.351562 3.617188 12.148438 Z M 3.617188 12.148438 "/>
<path style=" stroke:none;fill-rule:nonzero;fill:rgb(13.725491%,7.058824%,34.901962%);fill-opacity:1;" d="M 26.714844 17.480469 C 26.804688 17.480469 26.898438 17.480469 26.992188 17.480469 C 26.78125 20.628906 25.65625 22.382812 23.527344 24.570312 C 22.628906 25.347656 22.003906 25.621094 20.871094 25.777344 C 20.90625 25.257812 20.90625 25.257812 21.148438 24.59375 C 21.972656 23.925781 22.667969 23.460938 23.652344 23.109375 C 23.652344 22.914062 23.652344 22.71875 23.652344 22.519531 C 23.835938 22.519531 24.019531 22.519531 24.207031 22.519531 C 24.277344 22.367188 24.347656 22.214844 24.417969 22.054688 C 24.703125 21.464844 25.007812 20.886719 25.320312 20.316406 C 25.769531 19.492188 26.117188 18.667969 26.433594 17.777344 C 26.527344 17.679688 26.617188 17.582031 26.714844 17.480469 Z M 26.714844 17.480469 "/>
<path style=" stroke:none;fill-rule:nonzero;fill:rgb(19.607843%,12.156863%,50.196081%);fill-opacity:1;" d="M 3.617188 7.703125 C 3.617188 8.199219 3.617188 8.691406 3.617188 9.183594 C 3.984375 8.988281 4.351562 8.792969 4.730469 8.59375 C 4.453125 9.472656 4.179688 10.351562 3.894531 11.257812 C 3.621094 11.257812 3.34375 11.257812 3.0625 11.257812 C 2.785156 12.433594 2.511719 13.605469 2.226562 14.816406 C 1.859375 14.914062 1.492188 15.011719 1.113281 15.109375 C 1.164062 12.632812 1.644531 10.480469 2.78125 8.296875 C 3.058594 8.101562 3.332031 7.90625 3.617188 7.703125 Z M 3.617188 7.703125 "/>
<path style=" stroke:none;fill-rule:nonzero;fill:rgb(22.352941%,14.509805%,45.882353%);fill-opacity:1;" d="M 6.121094 21.332031 C 7.019531 21.652344 7.164062 21.816406 7.722656 22.574219 C 9.113281 24.355469 10.472656 25.566406 12.523438 26.371094 C 12.246094 26.566406 11.972656 26.761719 11.6875 26.964844 C 10.457031 26.65625 9.488281 26.078125 8.433594 25.351562 C 8.175781 25.175781 7.917969 25 7.648438 24.816406 C 7.066406 24.378906 6.570312 23.992188 6.121094 23.40625 C 6.226562 22.816406 6.226562 22.816406 6.398438 22.222656 C 6.308594 21.929688 6.214844 21.636719 6.121094 21.332031 Z M 6.121094 21.332031 "/>
<path style=" stroke:none;fill-rule:nonzero;fill:rgb(21.568628%,11.372549%,49.411765%);fill-opacity:1;" d="M 18.644531 2.371094 C 18.734375 2.566406 18.828125 2.761719 18.921875 2.964844 C 19.378906 3.269531 19.84375 3.570312 20.3125 3.851562 C 19.589844 4.238281 19.316406 4.074219 18.539062 3.871094 C 15.917969 3.28125 13.4375 3.464844 10.851562 4.148438 C 11.339844 3 11.339844 3 11.964844 2.667969 C 14.171875 2.273438 16.414062 2.339844 18.644531 2.371094 Z M 18.644531 2.371094 "/>
<path style=" stroke:none;fill-rule:nonzero;fill:rgb(13.725491%,7.450981%,34.117648%);fill-opacity:1;" d="M 26.992188 23.109375 C 27.289062 23.644531 27.289062 23.644531 27.546875 24.296875 C 27.253906 25.222656 27.253906 25.222656 26.714844 26.074219 C 25.984375 26.445312 25.984375 26.445312 25.320312 26.667969 C 25.230469 26.863281 25.136719 27.058594 25.042969 27.257812 C 23.90625 27.679688 22.910156 27.929688 21.703125 27.851562 C 22.320312 27.148438 22.957031 26.65625 23.722656 26.148438 C 24.972656 25.28125 25.984375 24.277344 26.992188 23.109375 Z M 26.992188 23.109375 "/>
<path style=" stroke:none;fill-rule:nonzero;fill:rgb(30.980393%,18.039216%,54.509807%);fill-opacity:1;" d="M 23.652344 27.851562 C 23.925781 27.949219 24.203125 28.046875 24.488281 28.148438 C 22.234375 29.667969 20.214844 30.8125 17.53125 31.109375 C 18.085938 30.519531 18.085938 30.519531 18.921875 30.222656 C 19.011719 30.027344 19.105469 29.832031 19.199219 29.628906 C 18.648438 29.628906 18.097656 29.628906 17.53125 29.628906 C 17.53125 29.53125 17.53125 29.433594 17.53125 29.332031 C 18.058594 29.191406 18.585938 29.050781 19.113281 28.90625 C 19.40625 28.828125 19.699219 28.75 20.003906 28.667969 C 20.753906 28.472656 21.503906 28.300781 22.261719 28.148438 C 22.261719 28.34375 22.261719 28.539062 22.261719 28.742188 C 22.472656 28.589844 22.6875 28.433594 22.90625 28.277344 C 23.152344 28.136719 23.398438 27.996094 23.652344 27.851562 Z M 23.652344 27.851562 "/>
<path style=" stroke:none;fill-rule:nonzero;fill:rgb(32.156864%,10.196079%,55.29412%);fill-opacity:1;" d="M 13.078125 21.332031 C 14.714844 22.703125 14.714844 22.703125 15.027344 23.703125 C 16.035156 23.703125 17.046875 23.703125 18.085938 23.703125 C 18.179688 23.507812 18.269531 23.3125 18.363281 23.109375 C 18.824219 23.109375 19.285156 23.109375 19.757812 23.109375 C 19.480469 23.257812 19.480469 23.257812 19.199219 23.40625 C 19.199219 23.601562 19.199219 23.796875 19.199219 24 C 19.566406 24.195312 19.933594 24.390625 20.3125 24.59375 C 20.3125 24.789062 20.3125 24.984375 20.3125 25.183594 C 19.761719 25.28125 19.210938 25.378906 18.644531 25.480469 C 18.550781 25.1875 18.460938 24.894531 18.363281 24.59375 C 18.089844 24.609375 18.089844 24.609375 17.804688 24.625 C 15.277344 24.707031 15.277344 24.707031 14.191406 23.703125 C 14.191406 23.507812 14.191406 23.3125 14.191406 23.109375 C 13.824219 22.914062 13.457031 22.71875 13.078125 22.519531 C 13.078125 22.128906 13.078125 21.734375 13.078125 21.332031 Z M 13.078125 21.332031 "/>
<path style=" stroke:none;fill-rule:nonzero;fill:rgb(39.607844%,12.54902%,61.960787%);fill-opacity:1;" d="M 8.90625 9.480469 C 8.996094 9.675781 9.089844 9.871094 9.183594 10.074219 C 11.109375 10.074219 13.039062 10.074219 15.027344 10.074219 C 15.027344 10.171875 15.027344 10.269531 15.027344 10.371094 C 14.703125 10.414062 14.703125 10.414062 14.375 10.457031 C 12.101562 10.804688 10.160156 11.183594 8.625 13.109375 C 8.441406 13.378906 8.257812 13.648438 8.070312 13.925781 C 7.886719 13.828125 7.703125 13.730469 7.511719 13.628906 C 7.941406 12.230469 8.414062 10.855469 8.90625 9.480469 Z M 8.90625 9.480469 "/>
<path style=" stroke:none;fill-rule:nonzero;fill:rgb(29.803923%,17.647059%,55.29412%);fill-opacity:1;" d="M 5.84375 26.371094 C 6.816406 26.773438 7.757812 27.214844 8.695312 27.703125 C 9.058594 27.890625 9.058594 27.890625 9.429688 28.082031 C 10.015625 28.445312 10.015625 28.445312 10.296875 29.035156 C 10.757812 29.3125 11.226562 29.570312 11.703125 29.816406 C 11.960938 29.945312 12.214844 30.078125 12.480469 30.214844 C 12.777344 30.367188 12.777344 30.367188 13.078125 30.519531 C 11.742188 31.054688 10.777344 30.40625 9.535156 29.832031 C 8.09375 29.042969 6.832031 28.03125 5.566406 26.964844 C 5.65625 26.765625 5.75 26.570312 5.84375 26.371094 Z M 5.84375 26.371094 "/>
<path style=" stroke:none;fill-rule:nonzero;fill:rgb(25.098041%,13.725491%,45.882353%);fill-opacity:1;" d="M 24.765625 7.109375 C 25.933594 7.800781 26.652344 8.339844 27.140625 9.734375 C 27.398438 11.019531 27.328125 12.324219 27.269531 13.628906 C 27.085938 13.335938 26.902344 13.042969 26.714844 12.742188 C 26.53125 12.546875 26.347656 12.351562 26.15625 12.148438 C 26.066406 12.148438 25.972656 12.148438 25.878906 12.148438 C 25.847656 11.972656 25.816406 11.796875 25.785156 11.617188 C 25.527344 10.242188 25.25 9.167969 24.488281 8 C 24.394531 7.804688 24.304688 7.609375 24.207031 7.40625 C 24.390625 7.308594 24.574219 7.210938 24.765625 7.109375 Z M 24.765625 7.109375 "/>
<path style=" stroke:none;fill-rule:nonzero;fill:rgb(21.960784%,10.980392%,40.000001%);fill-opacity:1;" d="M 6.957031 5.332031 C 7.140625 5.527344 7.324219 5.722656 7.511719 5.925781 C 7.160156 6.226562 7.160156 6.226562 6.800781 6.535156 C 5.355469 8.046875 4.683594 10.203125 3.894531 12.148438 C 3.578125 11.136719 3.652344 10.960938 4.015625 10.019531 C 4.097656 9.804688 4.175781 9.59375 4.261719 9.375 C 4.355469 9.136719 4.355469 9.136719 4.453125 8.890625 C 3.761719 9.328125 3.761719 9.328125 3.0625 9.777344 C 3.238281 8.898438 3.414062 8.152344 3.894531 7.40625 C 4.375 7.09375 4.859375 6.785156 5.355469 6.503906 C 5.933594 6.171875 6.441406 5.769531 6.957031 5.332031 Z M 6.957031 5.332031 "/>
<path style=" stroke:none;fill-rule:nonzero;fill:rgb(31.764707%,15.686275%,52.549022%);fill-opacity:1;" d="M 27.269531 10.964844 C 28.097656 12.285156 28.144531 13.277344 28.140625 14.851562 C 28.140625 15.164062 28.140625 15.476562 28.140625 15.796875 C 28.105469 16.59375 28.105469 16.59375 27.824219 17.183594 C 27.640625 17.183594 27.457031 17.183594 27.269531 17.183594 C 27.179688 16.988281 27.085938 16.792969 26.992188 16.59375 C 26.808594 16.984375 26.625 17.375 26.433594 17.777344 C 26.425781 17.253906 26.421875 16.726562 26.417969 16.203125 C 26.414062 15.910156 26.410156 15.621094 26.40625 15.316406 C 26.433594 14.519531 26.433594 14.519531 26.714844 13.628906 C 26.898438 13.628906 27.082031 13.628906 27.269531 13.628906 C 27.269531 12.75 27.269531 11.871094 27.269531 10.964844 Z M 27.269531 10.964844 "/>
<path style=" stroke:none;fill-rule:nonzero;fill:rgb(19.215687%,11.372549%,41.176471%);fill-opacity:1;" d="M 19.757812 3.851562 C 19.894531 4.144531 19.894531 4.144531 20.035156 4.445312 C 19.761719 4.398438 19.488281 4.351562 19.203125 4.300781 C 16.082031 3.832031 13.191406 3.90625 10.296875 5.332031 C 10.019531 5.429688 9.746094 5.527344 9.460938 5.628906 C 9.460938 5.035156 9.460938 5.035156 10.015625 4.445312 C 9.832031 4.25 9.648438 4.054688 9.460938 3.851562 C 10.015625 3.738281 10.570312 3.640625 11.128906 3.554688 C 11.222656 3.652344 11.3125 3.75 11.410156 3.851562 C 11.710938 3.761719 12.015625 3.667969 12.332031 3.574219 C 14.683594 2.914062 17.445312 3.015625 19.757812 3.851562 Z M 19.757812 3.851562 "/>
<path style=" stroke:none;fill-rule:nonzero;fill:rgb(63.921571%,38.82353%,83.137256%);fill-opacity:1;" d="M 12.800781 18.074219 C 13.839844 18.441406 14.082031 18.945312 14.746094 19.851562 C 16.222656 21.316406 18.085938 21.40625 20.015625 21.371094 C 20.207031 21.367188 20.398438 21.363281 20.59375 21.363281 C 21.058594 21.355469 21.519531 21.34375 21.984375 21.332031 C 21.46875 22.046875 21.148438 22.222656 20.320312 22.457031 C 18.402344 22.6875 17.171875 22.683594 15.566406 21.464844 C 14.515625 20.523438 13.589844 19.5625 12.800781 18.371094 C 12.800781 18.273438 12.800781 18.175781 12.800781 18.074219 Z M 12.800781 18.074219 "/>
<path style=" stroke:none;fill-rule:nonzero;fill:rgb(17.647059%,7.058824%,38.431373%);fill-opacity:1;" d="M 20.3125 27.257812 C 20.222656 27.648438 20.128906 28.042969 20.035156 28.445312 C 20.402344 28.347656 20.769531 28.25 21.148438 28.148438 C 20.871094 28.742188 20.871094 28.742188 20.277344 28.992188 C 17.457031 29.800781 14.277344 30.074219 11.410156 29.332031 C 12.242188 28.742188 12.242188 28.742188 13.355469 28.742188 C 13.355469 28.9375 13.355469 29.132812 13.355469 29.332031 C 14.175781 29.242188 14.992188 29.148438 15.808594 29.054688 C 16.039062 29.03125 16.273438 29.003906 16.511719 28.976562 C 16.734375 28.953125 16.957031 28.925781 17.1875 28.898438 C 17.496094 28.863281 17.496094 28.863281 17.8125 28.828125 C 18.421875 28.75 18.421875 28.75 19.199219 28.445312 C 18.925781 28.25 18.648438 28.054688 18.363281 27.851562 C 18.644531 27.257812 18.644531 27.257812 19.183594 27.054688 C 19.757812 26.964844 19.757812 26.964844 20.3125 27.257812 Z M 20.3125 27.257812 "/>
<path style=" stroke:none;fill-rule:nonzero;fill:rgb(11.372549%,7.450981%,36.862746%);fill-opacity:1;" d="M 3.0625 10.667969 C 3.617188 11.257812 3.617188 11.257812 3.6875 11.964844 C 3.617188 12.742188 3.617188 12.742188 3.355469 13.265625 C 2.984375 14.09375 2.878906 14.871094 2.746094 15.777344 C 2.703125 16.097656 2.65625 16.417969 2.605469 16.746094 C 2.574219 16.988281 2.539062 17.230469 2.503906 17.480469 C 2.230469 17.285156 1.953125 17.089844 1.667969 16.890625 C 1.484375 16.988281 1.300781 17.085938 1.113281 17.183594 C 1.113281 16.5 1.113281 15.816406 1.113281 15.109375 C 1.480469 15.011719 1.847656 14.914062 2.226562 14.816406 C 2.238281 14.613281 2.253906 14.414062 2.265625 14.207031 C 2.296875 13.8125 2.296875 13.8125 2.332031 13.40625 C 2.351562 13.144531 2.371094 12.886719 2.390625 12.617188 C 2.503906 11.855469 2.703125 11.332031 3.0625 10.667969 Z M 3.0625 10.667969 "/>
<path style=" stroke:none;fill-rule:nonzero;fill:rgb(61.176473%,32.941177%,81.176472%);fill-opacity:1;" d="M 23.09375 17.183594 C 23.1875 17.480469 23.28125 17.773438 23.375 18.074219 C 23.007812 18.367188 22.640625 18.660156 22.261719 18.964844 C 22.351562 19.257812 22.445312 19.550781 22.539062 19.851562 C 20.703125 19.851562 18.867188 19.851562 16.972656 19.851562 C 17.066406 19.65625 17.15625 19.460938 17.253906 19.257812 C 17.8125 19.15625 18.375 19.082031 18.9375 19.019531 C 20.671875 18.769531 21.703125 18.289062 23.09375 17.183594 Z M 23.09375 17.183594 "/>
<path style=" stroke:none;fill-rule:nonzero;fill:rgb(21.568628%,9.019608%,44.705883%);fill-opacity:1;" d="M 14.746094 24.296875 C 15.34375 24.328125 15.941406 24.367188 16.539062 24.40625 C 17.039062 24.4375 17.039062 24.4375 17.546875 24.46875 C 17.816406 24.511719 18.085938 24.550781 18.363281 24.59375 C 18.457031 24.789062 18.550781 24.984375 18.644531 25.183594 C 18.917969 25.378906 19.195312 25.578125 19.476562 25.777344 C 18.410156 26.539062 17.304688 26.4375 16.070312 26.40625 C 15.863281 26.40625 15.65625 26.402344 15.441406 26.398438 C 14.933594 26.390625 14.421875 26.382812 13.914062 26.371094 C 13.914062 26.273438 13.914062 26.175781 13.914062 26.074219 C 14.921875 26.074219 15.933594 26.074219 16.972656 26.074219 C 16.972656 25.878906 16.972656 25.683594 16.972656 25.480469 C 16.710938 25.394531 16.445312 25.308594 16.175781 25.222656 C 15.304688 24.890625 15.304688 24.890625 14.746094 24.296875 Z M 14.746094 24.296875 "/>
<path style=" stroke:none;fill-rule:nonzero;fill:rgb(18.039216%,9.411765%,40.392157%);fill-opacity:1;" d="M 26.714844 17.480469 C 26.804688 17.480469 26.898438 17.480469 26.992188 17.480469 C 26.875 19.230469 26.601562 20.78125 25.601562 22.222656 C 25.003906 22.585938 25.003906 22.585938 24.488281 22.816406 C 24.394531 22.519531 24.304688 22.226562 24.207031 21.925781 C 24.527344 21.308594 24.527344 21.308594 24.992188 20.628906 C 25.621094 19.703125 26.054688 18.847656 26.433594 17.777344 C 26.527344 17.679688 26.617188 17.582031 26.714844 17.480469 Z M 26.714844 17.480469 "/>
<path style=" stroke:none;fill-rule:nonzero;fill:rgb(67.843139%,46.27451%,83.529413%);fill-opacity:1;" d="M 13.078125 12.148438 C 13.261719 12.246094 13.445312 12.34375 13.636719 12.445312 C 13.449219 12.683594 13.265625 12.921875 13.078125 13.167969 C 12.410156 14.207031 12.453125 15.054688 12.5625 16.28125 C 12.507812 17.078125 12.214844 17.238281 11.6875 17.777344 C 11.527344 18.382812 11.527344 18.382812 11.496094 19.019531 C 11.46875 19.390625 11.4375 19.765625 11.410156 20.148438 C 11.316406 20.148438 11.226562 20.148438 11.128906 20.148438 C 10.96875 17.3125 10.945312 15.160156 12.523438 12.742188 C 12.707031 12.546875 12.890625 12.351562 13.078125 12.148438 Z M 13.078125 12.148438 "/>
<path style=" stroke:none;fill-rule:nonzero;fill:rgb(45.09804%,15.686275%,62.7451%);fill-opacity:1;" d="M 13.636719 6.519531 C 13.910156 6.519531 14.1875 6.519531 14.46875 6.519531 C 14.46875 7.007812 14.46875 7.496094 14.46875 8 C 14.265625 7.992188 14.058594 7.984375 13.847656 7.980469 C 13.441406 7.972656 13.441406 7.972656 13.027344 7.964844 C 12.625 7.953125 12.625 7.953125 12.214844 7.941406 C 10.988281 8.03125 10.195312 8.464844 9.183594 9.183594 C 9.21875 8.648438 9.21875 8.648438 9.460938 8 C 10.816406 6.988281 12.046875 7.007812 13.636719 7.109375 C 13.636719 6.914062 13.636719 6.71875 13.636719 6.519531 Z M 13.636719 6.519531 "/>
<path style=" stroke:none;fill-rule:nonzero;fill:rgb(41.568628%,11.764706%,62.7451%);fill-opacity:1;" d="M 13.078125 16.59375 C 13.226562 16.679688 13.375 16.765625 13.53125 16.851562 C 15.066406 17.65625 15.066406 17.65625 16.730469 17.554688 C 17.382812 17.253906 18.019531 16.949219 18.644531 16.59375 C 18.734375 16.886719 18.828125 17.179688 18.921875 17.480469 C 18.554688 17.578125 18.1875 17.675781 17.808594 17.777344 C 17.808594 17.972656 17.808594 18.167969 17.808594 18.371094 C 14.84375 18.925781 14.84375 18.925781 13.9375 18.300781 C 13.078125 17.179688 13.078125 17.179688 13.078125 16.59375 Z M 13.078125 16.59375 "/>
<path style=" stroke:none;fill-rule:nonzero;fill:rgb(44.313726%,14.901961%,69.01961%);fill-opacity:1;" d="M 14.46875 11.554688 C 14.835938 11.652344 15.203125 11.75 15.582031 11.851562 C 15.035156 12.296875 14.53125 12.707031 13.914062 13.035156 C 13.28125 14.050781 13.25 15.027344 13.183594 16.222656 C 13.160156 16.570312 13.140625 16.914062 13.121094 17.273438 C 13.105469 17.539062 13.09375 17.800781 13.078125 18.074219 C 12.894531 17.976562 12.710938 17.878906 12.523438 17.777344 C 12.367188 16.957031 12.367188 16.957031 12.277344 15.925781 C 12.246094 15.589844 12.210938 15.25 12.175781 14.902344 C 12.257812 13.707031 12.558594 13.273438 13.355469 12.445312 C 13.632812 12.347656 13.90625 12.25 14.191406 12.148438 C 14.28125 11.953125 14.375 11.757812 14.46875 11.554688 Z M 14.46875 11.554688 "/>
<path style=" stroke:none;fill-rule:nonzero;fill:rgb(46.27451%,14.509805%,63.921571%);fill-opacity:1;" d="M 17.53125 5.925781 C 17.53125 6.121094 17.53125 6.316406 17.53125 6.519531 C 17.691406 6.535156 17.851562 6.554688 18.015625 6.574219 C 18.886719 6.90625 19.203125 7.53125 19.757812 8.296875 C 19.941406 8.296875 20.125 8.296875 20.3125 8.296875 C 20.222656 8.6875 20.128906 9.078125 20.035156 9.480469 C 19.210938 9.003906 18.640625 8.589844 18.015625 7.832031 C 17.003906 6.875 16.0625 6.722656 14.746094 6.519531 C 14.746094 6.421875 14.746094 6.324219 14.746094 6.222656 C 15.695312 5.992188 16.558594 5.894531 17.53125 5.925781 Z M 17.53125 5.925781 "/>
<path style=" stroke:none;fill-rule:nonzero;fill:rgb(49.411765%,20.392157%,70.588237%);fill-opacity:1;" d="M 11.410156 16 C 11.5 16 11.59375 16 11.6875 16 C 11.742188 16.234375 11.792969 16.472656 11.851562 16.714844 C 12.386719 19.046875 12.386719 19.046875 13.078125 21.332031 C 12.710938 21.234375 12.34375 21.136719 11.964844 21.035156 C 11.875 21.332031 11.78125 21.625 11.6875 21.925781 C 11.410156 21.828125 11.136719 21.730469 10.851562 21.628906 C 11.035156 21.628906 11.21875 21.628906 11.410156 21.628906 C 11.410156 19.773438 11.410156 17.914062 11.410156 16 Z M 11.410156 16 "/>
<path style=" stroke:none;fill-rule:nonzero;fill:rgb(35.686275%,14.509805%,59.607846%);fill-opacity:1;" d="M 23.652344 3.257812 C 23.09375 3.554688 23.09375 3.554688 22.816406 3.554688 C 23.367188 3.945312 23.917969 4.335938 24.488281 4.742188 C 24.210938 4.886719 24.210938 4.886719 23.929688 5.035156 C 23.265625 4.730469 22.640625 4.410156 22 4.054688 C 21.824219 3.960938 21.648438 3.863281 21.464844 3.765625 C 20.679688 3.335938 19.9375 2.894531 19.199219 2.371094 C 21.09375 1.949219 22.0625 2.070312 23.652344 3.257812 Z M 23.652344 3.257812 "/>
<path style=" stroke:none;fill-rule:nonzero;fill:rgb(16.862746%,10.196079%,52.549022%);fill-opacity:1;" d="M 2.503906 10.667969 C 2.820312 11.675781 2.738281 12.378906 2.523438 13.40625 C 2.46875 13.671875 2.414062 13.9375 2.359375 14.207031 C 2.3125 14.410156 2.269531 14.609375 2.226562 14.816406 C 1.859375 14.914062 1.492188 15.011719 1.113281 15.109375 C 1.128906 14.578125 1.15625 14.050781 1.183594 13.519531 C 1.195312 13.222656 1.207031 12.925781 1.222656 12.621094 C 1.390625 11.851562 1.390625 11.851562 1.960938 11.453125 C 2.140625 11.386719 2.320312 11.324219 2.503906 11.257812 C 2.503906 11.0625 2.503906 10.867188 2.503906 10.667969 Z M 2.503906 10.667969 "/>
<path style=" stroke:none;fill-rule:nonzero;fill:rgb(14.509805%,9.019608%,36.862746%);fill-opacity:1;" d="M 9.960938 4.226562 C 10.164062 4.300781 10.367188 4.371094 10.574219 4.445312 C 10.023438 4.738281 10.023438 4.738281 9.460938 5.035156 C 9.460938 5.234375 9.460938 5.429688 9.460938 5.628906 C 9.007812 5.941406 8.539062 6.234375 8.070312 6.519531 C 7.511719 6.910156 6.953125 7.304688 6.398438 7.703125 C 6.550781 6.53125 7.050781 6.019531 7.859375 5.242188 C 8.074219 5.027344 8.289062 4.816406 8.507812 4.597656 C 9.183594 4.148438 9.183594 4.148438 9.960938 4.226562 Z M 9.960938 4.226562 "/>
<path style=" stroke:none;fill-rule:nonzero;fill:rgb(65.882355%,41.176471%,82.352942%);fill-opacity:1;" d="M 14.46875 7.40625 C 14.835938 7.503906 15.203125 7.601562 15.582031 7.703125 C 15.582031 7.898438 15.582031 8.09375 15.582031 8.296875 C 15.777344 8.363281 15.972656 8.429688 16.175781 8.5 C 17.621094 9.203125 18.863281 10.257812 19.476562 11.851562 C 19.253906 12.535156 19.253906 12.535156 18.921875 13.035156 C 18.8125 12.726562 18.703125 12.414062 18.589844 12.09375 C 17.863281 10.332031 16.875 9.507812 15.21875 8.796875 C 14.785156 8.625 14.347656 8.457031 13.914062 8.296875 C 14.097656 8.199219 14.28125 8.101562 14.46875 8 C 14.46875 7.804688 14.46875 7.609375 14.46875 7.40625 Z M 14.46875 7.40625 "/>
<path style=" stroke:none;fill-rule:nonzero;fill:rgb(63.137257%,36.862746%,77.64706%);fill-opacity:1;" d="M 19.199219 9.183594 C 19.660156 9.183594 20.117188 9.183594 20.589844 9.183594 C 20.921875 10.238281 20.898438 11.09375 20.886719 12.203125 C 20.882812 12.582031 20.882812 12.957031 20.878906 13.347656 C 20.875 13.636719 20.871094 13.925781 20.871094 14.222656 C 20.59375 14.222656 20.320312 14.222656 20.035156 14.222656 C 20.015625 13.863281 20.015625 13.863281 19.992188 13.496094 C 19.960938 13.023438 19.960938 13.023438 19.929688 12.535156 C 19.910156 12.222656 19.890625 11.910156 19.871094 11.589844 C 19.761719 10.695312 19.550781 10.003906 19.199219 9.183594 Z M 19.199219 9.183594 "/>
<path style=" stroke:none;fill-rule:nonzero;fill:rgb(29.019609%,21.176471%,50.588238%);fill-opacity:1;" d="M 29.773438 13.925781 C 30.332031 14.519531 30.332031 14.519531 30.40625 15.066406 C 30.394531 16.730469 30.171875 18.242188 29.773438 19.851562 C 29.683594 19.851562 29.589844 19.851562 29.496094 19.851562 C 29.488281 18.917969 29.484375 17.988281 29.476562 17.054688 C 29.476562 16.789062 29.472656 16.523438 29.472656 16.25 C 29.46875 15.996094 29.46875 15.742188 29.46875 15.484375 C 29.464844 15.132812 29.464844 15.132812 29.464844 14.773438 C 29.496094 14.222656 29.496094 14.222656 29.773438 13.925781 Z M 29.773438 13.925781 "/>
<path style=" stroke:none;fill-rule:nonzero;fill:rgb(15.686275%,9.019608%,43.921569%);fill-opacity:1;" d="M 5.566406 8.296875 C 5.84375 9.183594 5.84375 9.183594 5.628906 9.726562 C 5.328125 10.238281 5.03125 10.75 4.730469 11.257812 C 4.914062 11.257812 5.097656 11.257812 5.285156 11.257812 C 5.101562 12.042969 4.917969 12.824219 4.730469 13.628906 C 4.453125 13.53125 4.179688 13.433594 3.894531 13.332031 C 3.667969 11.492188 4.453125 10.140625 5.285156 8.59375 C 5.378906 8.496094 5.46875 8.398438 5.566406 8.296875 Z M 5.566406 8.296875 "/>
<path style=" stroke:none;fill-rule:nonzero;fill:rgb(49.411765%,20.784314%,72.156864%);fill-opacity:1;" d="M 22.539062 19.851562 C 22.851562 20.664062 22.839844 20.976562 22.53125 21.804688 C 21.984375 22.519531 21.984375 22.519531 21.050781 22.726562 C 20.695312 22.738281 20.34375 22.75 19.984375 22.757812 C 19.453125 22.78125 19.453125 22.78125 18.910156 22.800781 C 18.636719 22.804688 18.367188 22.808594 18.085938 22.816406 C 17.996094 23.109375 17.902344 23.402344 17.808594 23.703125 C 17.164062 23.703125 16.523438 23.703125 15.859375 23.703125 C 15.859375 23.605469 15.859375 23.507812 15.859375 23.40625 C 16.320312 23.308594 16.777344 23.210938 17.253906 23.109375 C 17.34375 22.816406 17.4375 22.523438 17.53125 22.222656 C 17.902344 22.210938 17.902344 22.210938 18.28125 22.199219 C 18.609375 22.183594 18.933594 22.164062 19.269531 22.148438 C 19.753906 22.128906 19.753906 22.128906 20.246094 22.105469 C 21.292969 21.898438 21.621094 21.628906 22.261719 20.742188 C 22.351562 20.449219 22.445312 20.152344 22.539062 19.851562 Z M 22.539062 19.851562 "/>
<path style=" stroke:none;fill-rule:nonzero;fill:rgb(29.019609%,13.333334%,43.529412%);fill-opacity:1;" d="M 20.589844 3.257812 C 21.699219 3.429688 22.460938 3.796875 23.410156 4.425781 C 23.761719 4.660156 23.761719 4.660156 24.125 4.898438 C 24.621094 5.234375 25.109375 5.578125 25.601562 5.925781 C 25.601562 6.121094 25.601562 6.316406 25.601562 6.519531 C 25.785156 6.617188 25.96875 6.714844 26.15625 6.816406 C 25.972656 7.011719 25.789062 7.207031 25.601562 7.40625 C 25.425781 7.230469 25.25 7.050781 25.070312 6.867188 C 23.648438 5.453125 22.382812 4.367188 20.589844 3.554688 C 20.589844 3.457031 20.589844 3.359375 20.589844 3.257812 Z M 20.589844 3.257812 "/>
<path style=" stroke:none;fill-rule:nonzero;fill:rgb(38.039216%,25.882354%,60.000002%);fill-opacity:1;" d="M 20.589844 29.035156 C 20.40625 29.234375 20.222656 29.429688 20.035156 29.628906 C 20.585938 29.628906 21.136719 29.628906 21.703125 29.628906 C 20.828125 30.441406 20.132812 30.683594 18.992188 30.871094 C 18.71875 30.917969 18.441406 30.964844 18.160156 31.011719 C 17.953125 31.046875 17.746094 31.078125 17.53125 31.109375 C 18.085938 30.519531 18.085938 30.519531 18.921875 30.222656 C 19.011719 30.027344 19.105469 29.832031 19.199219 29.628906 C 18.648438 29.628906 18.097656 29.628906 17.53125 29.628906 C 17.53125 29.53125 17.53125 29.433594 17.53125 29.332031 C 18.566406 29.128906 19.535156 29.003906 20.589844 29.035156 Z M 20.589844 29.035156 "/>
<path style=" stroke:none;fill-rule:nonzero;fill:rgb(37.254903%,14.901961%,56.862748%);fill-opacity:1;" d="M 15.027344 3.851562 C 17.851562 3.699219 19.972656 4.113281 22.261719 5.925781 C 21.703125 6.222656 21.703125 6.222656 21.171875 6.078125 C 20.875 5.957031 20.875 5.957031 20.574219 5.832031 C 20.375 5.753906 20.175781 5.675781 19.972656 5.597656 C 19.476562 5.332031 19.476562 5.332031 19.199219 4.742188 C 18.492188 4.601562 17.808594 4.492188 17.09375 4.40625 C 16.800781 4.367188 16.800781 4.367188 16.496094 4.328125 C 16.007812 4.265625 15.515625 4.207031 15.027344 4.148438 C 15.027344 4.050781 15.027344 3.953125 15.027344 3.851562 Z M 15.027344 3.851562 "/>
<path style=" stroke:none;fill-rule:nonzero;fill:rgb(58.823532%,32.549021%,79.215688%);fill-opacity:1;" d="M 10.015625 14.222656 C 10.109375 14.417969 10.199219 14.613281 10.296875 14.816406 C 10.214844 15.015625 10.136719 15.21875 10.050781 15.425781 C 9.632812 16.589844 9.558594 17.730469 9.460938 18.964844 C 9.367188 18.964844 9.277344 18.964844 9.183594 18.964844 C 9.183594 18.277344 9.183594 17.59375 9.183594 16.890625 C 8.816406 16.792969 8.449219 16.691406 8.070312 16.59375 C 8.289062 16.253906 8.507812 15.914062 8.730469 15.574219 C 8.851562 15.386719 8.976562 15.195312 9.101562 15 C 9.460938 14.519531 9.460938 14.519531 10.015625 14.222656 Z M 10.015625 14.222656 "/>
<path style=" stroke:none;fill-rule:nonzero;fill:rgb(28.627452%,12.156863%,49.411765%);fill-opacity:1;" d="M 9.738281 5.332031 C 9.921875 5.527344 10.105469 5.722656 10.296875 5.925781 C 10.078125 6 9.859375 6.074219 9.636719 6.148438 C 8.878906 6.433594 8.878906 6.433594 8.652344 7.054688 C 8.277344 7.851562 7.800781 8.347656 7.199219 8.964844 C 7 9.171875 6.796875 9.382812 6.589844 9.597656 C 6.433594 9.753906 6.28125 9.910156 6.121094 10.074219 C 6.121094 8.871094 6.546875 8.578125 7.304688 7.703125 C 7.523438 7.445312 7.742188 7.191406 7.96875 6.925781 C 8.53125 6.320312 9.085938 5.820312 9.738281 5.332031 Z M 9.738281 5.332031 "/>
<path style=" stroke:none;fill-rule:nonzero;fill:rgb(44.705883%,33.333334%,63.137257%);fill-opacity:1;" d="M 29.21875 10.074219 C 29.84375 10.742188 29.917969 11.0625 30.105469 11.964844 C 30.179688 12.304688 30.179688 12.304688 30.253906 12.65625 C 30.335938 13.367188 30.257812 13.84375 30.050781 14.519531 C 29.316406 13.941406 29.210938 13.601562 29.007812 12.628906 C 28.945312 11.679688 28.984375 10.984375 29.21875 10.074219 Z M 29.21875 10.074219 "/>
<path style=" stroke:none;fill-rule:nonzero;fill:rgb(58.039218%,45.490196%,75.294119%);fill-opacity:1;" d="M 11.964844 29.925781 C 13.8125 29.863281 15.453125 30.070312 17.253906 30.519531 C 17.253906 30.617188 17.253906 30.714844 17.253906 30.816406 C 16.578125 30.832031 15.90625 30.84375 15.234375 30.851562 C 15.046875 30.855469 14.855469 30.863281 14.660156 30.867188 C 13.617188 30.878906 12.847656 30.839844 11.964844 30.222656 C 11.964844 30.125 11.964844 30.027344 11.964844 29.925781 Z M 11.964844 29.925781 "/>
<path style=" stroke:none;fill-rule:nonzero;fill:rgb(49.411765%,37.64706%,71.372551%);fill-opacity:1;" d="M 10.015625 28.742188 C 10.246094 28.800781 10.246094 28.800781 10.480469 28.859375 C 12.636719 29.371094 14.769531 29.511719 16.972656 29.628906 C 16.972656 29.726562 16.972656 29.824219 16.972656 29.925781 C 12.058594 30.601562 12.058594 30.601562 10.679688 29.648438 C 10.460938 29.445312 10.242188 29.246094 10.015625 29.035156 C 10.015625 28.9375 10.015625 28.839844 10.015625 28.742188 Z M 10.015625 28.742188 "/>
<path style=" stroke:none;fill-rule:nonzero;fill:rgb(60.392159%,32.549021%,80.784315%);fill-opacity:1;" d="M 12.800781 18.074219 C 13.839844 18.441406 14.082031 18.945312 14.746094 19.851562 C 15.660156 20.757812 16.609375 21.015625 17.808594 21.332031 C 17.257812 21.625 17.257812 21.625 16.695312 21.925781 C 15.136719 20.90625 13.875 19.960938 12.800781 18.371094 C 12.800781 18.273438 12.800781 18.175781 12.800781 18.074219 Z M 12.800781 18.074219 "/>
<path style=" stroke:none;fill-rule:nonzero;fill:rgb(30.980393%,17.647059%,50.196081%);fill-opacity:1;" d="M 23.375 5.332031 C 24.070312 5.703125 24.070312 5.703125 24.765625 6.222656 C 24.765625 6.613281 24.765625 7.003906 24.765625 7.40625 C 24.488281 7.503906 24.214844 7.601562 23.929688 7.703125 C 23.5625 7.214844 23.195312 6.726562 22.816406 6.222656 C 23 5.929688 23.183594 5.636719 23.375 5.332031 Z M 23.375 5.332031 "/>
<path style=" stroke:none;fill-rule:nonzero;fill:rgb(23.921569%,16.078432%,45.882353%);fill-opacity:1;" d="M 29.21875 18.964844 C 29.308594 18.964844 29.402344 18.964844 29.496094 18.964844 C 29.386719 20.726562 29.113281 22.113281 28.382812 23.703125 C 28.199219 23.507812 28.015625 23.3125 27.824219 23.109375 C 27.949219 22.148438 28.335938 21.265625 28.679688 20.371094 C 28.777344 20.105469 28.878906 19.839844 28.984375 19.570312 C 29.0625 19.371094 29.136719 19.167969 29.21875 18.964844 Z M 29.21875 18.964844 "/>
<path style=" stroke:none;fill-rule:nonzero;fill:rgb(23.529412%,20.392157%,49.411765%);fill-opacity:1;" d="M 1.390625 15.40625 C 1.484375 15.40625 1.574219 15.40625 1.667969 15.40625 C 1.816406 16.015625 1.960938 16.628906 2.105469 17.242188 C 2.183594 17.582031 2.265625 17.921875 2.347656 18.273438 C 2.5 19.226562 2.472656 19.820312 2.226562 20.742188 C 1.429688 19.472656 1.359375 18.625 1.375 17.128906 C 1.375 16.808594 1.378906 16.484375 1.382812 16.152344 C 1.382812 15.90625 1.386719 15.660156 1.390625 15.40625 Z M 1.390625 15.40625 "/>
<path style=" stroke:none;fill-rule:nonzero;fill:rgb(24.313726%,16.862746%,51.764709%);fill-opacity:1;" d="M 3.617188 12.148438 C 4.277344 13.234375 4.1875 14.070312 4.070312 15.332031 C 4.039062 15.679688 4.007812 16.027344 3.976562 16.382812 C 3.949219 16.648438 3.921875 16.914062 3.894531 17.183594 C 3.339844 16.59375 3.339844 16.59375 3.273438 15.714844 C 3.277344 15.367188 3.28125 15.023438 3.285156 14.667969 C 3.289062 14.148438 3.289062 14.148438 3.292969 13.621094 C 3.339844 12.742188 3.339844 12.742188 3.617188 12.148438 Z M 3.617188 12.148438 "/>
<path style=" stroke:none;fill-rule:nonzero;fill:rgb(23.137255%,10.588235%,38.431373%);fill-opacity:1;" d="M 9.738281 2.371094 C 9.921875 2.46875 10.105469 2.566406 10.296875 2.667969 C 9.582031 3.550781 8.761719 3.9375 7.792969 4.445312 C 7.414062 4.730469 7.039062 5.023438 6.679688 5.332031 C 6.496094 5.234375 6.3125 5.136719 6.121094 5.035156 C 7.25 3.941406 8.300781 2.976562 9.738281 2.371094 Z M 9.738281 2.371094 "/>
<path style=" stroke:none;fill-rule:nonzero;fill:rgb(25.098041%,14.901961%,47.843137%);fill-opacity:1;" d="M 25.601562 26.074219 C 25.875 26.171875 26.152344 26.269531 26.433594 26.371094 C 25.144531 27.675781 23.972656 28.242188 22.261719 28.742188 C 22.261719 28.546875 22.261719 28.351562 22.261719 28.148438 C 23.296875 27.546875 23.839844 27.257812 25.042969 27.257812 C 25.226562 26.867188 25.410156 26.476562 25.601562 26.074219 Z M 25.601562 26.074219 "/>
<path style=" stroke:none;fill-rule:nonzero;fill:rgb(33.333334%,22.352941%,60.784316%);fill-opacity:1;" d="M 5.84375 26.371094 C 6.828125 26.773438 7.769531 27.230469 8.714844 27.742188 C 9.082031 27.9375 9.082031 27.9375 9.457031 28.140625 C 9.640625 28.242188 9.828125 28.339844 10.015625 28.445312 C 9.925781 28.640625 9.832031 28.835938 9.738281 29.035156 C 9.550781 28.933594 9.363281 28.828125 9.167969 28.722656 C 8.921875 28.589844 8.671875 28.453125 8.417969 28.316406 C 8.171875 28.179688 7.925781 28.046875 7.675781 27.910156 C 7.054688 27.605469 6.507812 27.402344 5.84375 27.257812 C 5.84375 26.964844 5.84375 26.671875 5.84375 26.371094 Z M 5.84375 26.371094 "/>
<path style=" stroke:none;fill-rule:nonzero;fill:rgb(59.607846%,29.411766%,82.352942%);fill-opacity:1;" d="M 9.460938 10.074219 C 11.296875 10.074219 13.132812 10.074219 15.027344 10.074219 C 15.027344 10.171875 15.027344 10.269531 15.027344 10.371094 C 14.414062 10.488281 13.796875 10.597656 13.183594 10.703125 C 12.667969 10.796875 12.667969 10.796875 12.144531 10.890625 C 11.085938 10.964844 10.433594 10.800781 9.460938 10.371094 C 9.460938 10.273438 9.460938 10.175781 9.460938 10.074219 Z M 9.460938 10.074219 "/>
<path style=" stroke:none;fill-rule:nonzero;fill:rgb(40.784314%,11.764706%,57.647061%);fill-opacity:1;" d="M 15.773438 5.574219 C 16.109375 5.585938 16.109375 5.585938 16.457031 5.597656 C 16.625 5.609375 16.796875 5.617188 16.972656 5.628906 C 16.128906 6.230469 15.808594 6.316406 14.835938 6.40625 C 14.609375 6.429688 14.386719 6.453125 14.152344 6.472656 C 13.980469 6.488281 13.8125 6.503906 13.636719 6.519531 C 14.308594 5.636719 14.71875 5.523438 15.773438 5.574219 Z M 12.523438 6.519531 C 12.890625 6.519531 13.257812 6.519531 13.636719 6.519531 C 13.636719 6.714844 13.636719 6.910156 13.636719 7.109375 C 13.265625 7.109375 12.898438 7.109375 12.523438 7.109375 C 12.523438 6.914062 12.523438 6.71875 12.523438 6.519531 Z M 12.523438 6.519531 "/>
<path style=" stroke:none;fill-rule:nonzero;fill:rgb(25.882354%,16.470589%,46.27451%);fill-opacity:1;" d="M 25.320312 4.148438 C 26.292969 4.976562 27.132812 5.703125 27.824219 6.816406 C 27.734375 7.011719 27.640625 7.207031 27.546875 7.40625 C 27.273438 7.308594 26.996094 7.210938 26.714844 7.109375 C 26.628906 6.921875 26.539062 6.730469 26.453125 6.535156 C 26.089844 5.792969 25.761719 5.640625 25.042969 5.332031 C 25.136719 4.941406 25.226562 4.550781 25.320312 4.148438 Z M 25.320312 4.148438 "/>
<path style=" stroke:none;fill-rule:nonzero;fill:rgb(20.392157%,12.941177%,43.137255%);fill-opacity:1;" d="M 13.355469 28.742188 C 13.355469 28.9375 13.355469 29.132812 13.355469 29.332031 C 14.734375 29.332031 16.109375 29.332031 17.53125 29.332031 C 17.53125 29.429688 17.53125 29.527344 17.53125 29.628906 C 16.769531 29.636719 16.011719 29.644531 15.253906 29.648438 C 15.039062 29.652344 14.824219 29.652344 14.605469 29.65625 C 13.5 29.660156 12.488281 29.625 11.410156 29.332031 C 12.242188 28.742188 12.242188 28.742188 13.355469 28.742188 Z M 13.355469 28.742188 "/>
<path style=" stroke:none;fill-rule:nonzero;fill:rgb(29.411766%,11.372549%,50.196081%);fill-opacity:1;" d="M 8.070312 17.480469 C 9.054688 18.421875 9.625 19.011719 9.738281 20.445312 C 9.464844 20.589844 9.464844 20.589844 9.183594 20.742188 C 9.089844 20.351562 9 19.957031 8.90625 19.554688 C 8.71875 19.554688 8.535156 19.554688 8.347656 19.554688 C 8.257812 18.871094 8.164062 18.1875 8.070312 17.480469 Z M 8.070312 17.480469 "/>
<path style=" stroke:none;fill-rule:nonzero;fill:rgb(25.882354%,15.686275%,49.411765%);fill-opacity:1;" d="M 6.398438 27.257812 C 7.785156 27.703125 9.019531 28.328125 10.296875 29.035156 C 9.214844 29.421875 8.824219 29.226562 7.792969 28.742188 C 6.992188 27.964844 6.992188 27.964844 6.398438 27.257812 Z M 6.398438 27.257812 "/>
<path style=" stroke:none;fill-rule:nonzero;fill:rgb(20%,10.980392%,42.745098%);fill-opacity:1;" d="M 9.183594 24.890625 C 10.304688 25.359375 11.414062 25.863281 12.523438 26.371094 C 12.246094 26.566406 11.972656 26.761719 11.6875 26.964844 C 10.632812 26.707031 9.84375 26.417969 9.183594 25.480469 C 9.183594 25.285156 9.183594 25.089844 9.183594 24.890625 Z M 9.183594 24.890625 "/>
<path style=" stroke:none;fill-rule:nonzero;fill:rgb(23.137255%,9.803922%,45.882353%);fill-opacity:1;" d="M 26.992188 15.40625 C 27.082031 15.40625 27.175781 15.40625 27.269531 15.40625 C 27.269531 15.992188 27.269531 16.582031 27.269531 17.183594 C 27.453125 17.183594 27.636719 17.183594 27.824219 17.183594 C 27.617188 18.890625 27.617188 18.890625 26.992188 19.554688 C 26.9375 19.085938 26.886719 18.617188 26.835938 18.148438 C 26.804688 17.886719 26.777344 17.625 26.746094 17.355469 C 26.714844 16.625 26.785156 16.097656 26.992188 15.40625 Z M 26.992188 15.40625 "/>
<path style=" stroke:none;fill-rule:nonzero;fill:rgb(55.29412%,22.745098%,72.156864%);fill-opacity:1;" d="M 22.539062 10.371094 C 22.632812 10.371094 22.722656 10.371094 22.816406 10.371094 C 23 11.542969 23.183594 12.71875 23.375 13.925781 C 23.097656 14.121094 22.824219 14.316406 22.539062 14.519531 C 22.449219 14.421875 22.355469 14.324219 22.261719 14.222656 C 22.285156 13.574219 22.328125 12.925781 22.382812 12.277344 C 22.410156 11.921875 22.4375 11.566406 22.46875 11.203125 C 22.492188 10.929688 22.515625 10.652344 22.539062 10.371094 Z M 22.539062 10.371094 "/>
<path style=" stroke:none;fill-rule:nonzero;fill:rgb(55.29412%,21.568628%,74.509805%);fill-opacity:1;" d="M 20.3125 11.257812 C 20.40625 11.257812 20.496094 11.257812 20.589844 11.257812 C 20.605469 11.828125 20.617188 12.394531 20.625 12.964844 C 20.632812 13.277344 20.640625 13.59375 20.644531 13.921875 C 20.59375 14.792969 20.460938 15.265625 20.035156 16 C 19.851562 15.902344 19.667969 15.804688 19.476562 15.703125 C 19.570312 15.214844 19.660156 14.726562 19.757812 14.222656 C 19.941406 14.222656 20.125 14.222656 20.3125 14.222656 C 20.3125 13.246094 20.3125 12.265625 20.3125 11.257812 Z M 20.3125 11.257812 "/>
<path style=" stroke:none;fill-rule:nonzero;fill:rgb(30.980393%,17.647059%,56.862748%);fill-opacity:1;" d="M 18.644531 1.183594 C 19.910156 1.132812 20.835938 1.1875 21.984375 1.777344 C 21.890625 1.972656 21.800781 2.167969 21.703125 2.371094 C 20.464844 2.488281 19.71875 2.121094 18.644531 1.480469 C 18.644531 1.382812 18.644531 1.285156 18.644531 1.183594 Z M 18.644531 1.183594 "/>
<path style=" stroke:none;fill-rule:nonzero;fill:rgb(15.294118%,9.803922%,36.862746%);fill-opacity:1;" d="M 26.714844 24 C 26.988281 24.097656 27.265625 24.195312 27.546875 24.296875 C 27.273438 24.882812 26.996094 25.46875 26.714844 26.074219 C 26.4375 26.074219 26.160156 26.074219 25.878906 26.074219 C 26.085938 24.667969 26.085938 24.667969 26.714844 24 Z M 26.714844 24 "/>
<path style=" stroke:none;fill-rule:nonzero;fill:rgb(45.09804%,14.117648%,67.058825%);fill-opacity:1;" d="M 13.078125 16.59375 C 14.003906 17.085938 14.933594 17.582031 15.859375 18.074219 C 15.675781 18.269531 15.492188 18.464844 15.304688 18.667969 C 14.78125 18.648438 14.78125 18.648438 14.191406 18.371094 C 13.078125 17.054688 13.078125 17.054688 13.078125 16.59375 Z M 13.078125 16.59375 "/>
<path style=" stroke:none;fill-rule:nonzero;fill:rgb(24.313726%,9.803922%,54.509807%);fill-opacity:1;" d="M 5.566406 10.074219 C 5.835938 10.933594 5.859375 11.28125 5.757812 12.148438 C 5.734375 12.351562 5.710938 12.550781 5.691406 12.757812 C 5.566406 13.332031 5.566406 13.332031 5.007812 14.222656 C 4.917969 14.125 4.824219 14.027344 4.730469 13.925781 C 4.855469 12.566406 5.125 11.355469 5.566406 10.074219 Z M 5.566406 10.074219 "/>
<path style=" stroke:none;fill-rule:nonzero;fill:rgb(43.529412%,18.431373%,63.529414%);fill-opacity:1;" d="M 8.347656 11.554688 C 8.808594 11.554688 9.265625 11.554688 9.738281 11.554688 C 8.914062 12.730469 8.914062 12.730469 8.070312 13.925781 C 7.886719 13.828125 7.703125 13.730469 7.511719 13.628906 C 8.035156 11.890625 8.035156 11.890625 8.347656 11.554688 Z M 8.347656 11.554688 "/>
<path style=" stroke:none;fill-rule:nonzero;fill:rgb(30.980393%,16.078432%,50.588238%);fill-opacity:1;" d="M 28.382812 8.890625 C 28.796875 9.183594 28.796875 9.183594 29.21875 9.480469 C 29.269531 10.554688 29.269531 10.554688 29.21875 11.554688 C 28.941406 11.703125 28.941406 11.703125 28.660156 11.851562 C 28.558594 11.46875 28.460938 11.085938 28.363281 10.703125 C 28.28125 10.382812 28.28125 10.382812 28.199219 10.058594 C 28.105469 9.480469 28.105469 9.480469 28.382812 8.890625 Z M 28.382812 8.890625 "/>
<path style=" stroke:none;fill-rule:nonzero;fill:rgb(10.588235%,7.450981%,36.862746%);fill-opacity:1;" d="M 7.511719 24.59375 C 7.925781 24.816406 8.335938 25.046875 8.746094 25.277344 C 9.089844 25.46875 9.089844 25.46875 9.441406 25.664062 C 10.015625 26.074219 10.015625 26.074219 10.296875 26.964844 C 9.222656 26.625 8.328125 26.316406 7.511719 25.480469 C 7.511719 25.1875 7.511719 24.894531 7.511719 24.59375 Z M 7.511719 24.59375 "/>
<path style=" stroke:none;fill-rule:nonzero;fill:rgb(86.666667%,80.000001%,89.803922%);fill-opacity:1;" d="M 12.800781 16.59375 C 13.542969 17.382812 14.285156 18.171875 15.027344 18.964844 C 14.84375 18.964844 14.660156 18.964844 14.46875 18.964844 C 14.378906 19.160156 14.285156 19.355469 14.191406 19.554688 C 13.957031 19.230469 13.726562 18.902344 13.496094 18.574219 C 13.367188 18.390625 13.238281 18.210938 13.105469 18.023438 C 12.800781 17.480469 12.800781 17.480469 12.800781 16.59375 Z M 12.800781 16.59375 "/>
<path style=" stroke:none;fill-rule:nonzero;fill:rgb(40.392157%,12.54902%,57.647061%);fill-opacity:1;" d="M 23.09375 9.777344 C 23.875 10.390625 23.9375 10.710938 24.121094 11.757812 C 24.152344 12.082031 24.179688 12.40625 24.207031 12.742188 C 24.023438 12.742188 23.839844 12.742188 23.652344 12.742188 C 23.070312 11.734375 23.046875 10.949219 23.09375 9.777344 Z M 23.09375 9.777344 "/>
<path style=" stroke:none;fill-rule:nonzero;fill:rgb(50.980395%,23.921569%,65.098041%);fill-opacity:1;" d="M 17.53125 5.925781 C 17.53125 6.121094 17.53125 6.316406 17.53125 6.519531 C 17.714844 6.519531 17.898438 6.519531 18.085938 6.519531 C 17.996094 6.8125 17.902344 7.105469 17.808594 7.40625 C 17.664062 7.316406 17.523438 7.222656 17.375 7.128906 C 16.511719 6.730469 15.679688 6.632812 14.746094 6.519531 C 14.746094 6.421875 14.746094 6.324219 14.746094 6.222656 C 15.695312 5.992188 16.558594 5.894531 17.53125 5.925781 Z M 17.53125 5.925781 "/>
<path style=" stroke:none;fill-rule:nonzero;fill:rgb(27.843139%,18.431373%,53.333336%);fill-opacity:1;" d="M 5.285156 5.925781 C 5.285156 6.21875 5.285156 6.511719 5.285156 6.816406 C 4.453125 7.464844 4.453125 7.464844 3.617188 8 C 3.433594 7.902344 3.25 7.804688 3.0625 7.703125 C 4.347656 5.925781 4.347656 5.925781 5.285156 5.925781 Z M 5.285156 5.925781 "/>
<path style=" stroke:none;fill-rule:nonzero;fill:rgb(67.058825%,42.745098%,83.529413%);fill-opacity:1;" d="M 11.410156 12.148438 C 11.683594 12.246094 11.960938 12.34375 12.242188 12.445312 C 11.984375 12.792969 11.722656 13.136719 11.460938 13.480469 C 11.316406 13.675781 11.171875 13.867188 11.019531 14.066406 C 10.574219 14.519531 10.574219 14.519531 9.738281 14.519531 C 10.140625 13.519531 10.667969 12.886719 11.410156 12.148438 Z M 11.410156 12.148438 "/>
<path style=" stroke:none;fill-rule:nonzero;fill:rgb(29.803923%,12.156863%,46.27451%);fill-opacity:1;" d="M 25.878906 10.667969 C 26.152344 10.667969 26.429688 10.667969 26.714844 10.667969 C 27.296875 11.675781 27.320312 12.460938 27.269531 13.628906 C 27.085938 13.335938 26.902344 13.042969 26.714844 12.742188 C 26.53125 12.546875 26.347656 12.351562 26.15625 12.148438 C 26.066406 12.148438 25.972656 12.148438 25.878906 12.148438 C 25.878906 11.660156 25.878906 11.171875 25.878906 10.667969 Z M 25.878906 10.667969 "/>
<path style=" stroke:none;fill-rule:nonzero;fill:rgb(25.098041%,17.254902%,47.058824%);fill-opacity:1;" d="M 17.808594 0.59375 C 18.453125 0.691406 19.09375 0.789062 19.757812 0.890625 C 19.664062 1.28125 19.574219 1.671875 19.476562 2.074219 C 18.660156 1.964844 18.660156 1.964844 17.808594 1.777344 C 17.71875 1.582031 17.625 1.386719 17.53125 1.183594 C 17.621094 0.988281 17.714844 0.792969 17.808594 0.59375 Z M 17.808594 0.59375 "/>
<path style=" stroke:none;fill-rule:nonzero;fill:rgb(58.823532%,27.843139%,77.64706%);fill-opacity:1;" d="M 21.984375 13.925781 C 22.257812 14.21875 22.535156 14.511719 22.816406 14.816406 C 22.265625 15.5 21.714844 16.183594 21.148438 16.890625 C 21.054688 16.691406 20.964844 16.496094 20.871094 16.296875 C 21.085938 15.71875 21.085938 15.71875 21.410156 15.074219 C 21.566406 14.753906 21.566406 14.753906 21.730469 14.421875 C 21.8125 14.257812 21.898438 14.09375 21.984375 13.925781 Z M 21.984375 13.925781 "/>
<path style=" stroke:none;fill-rule:nonzero;fill:rgb(47.450981%,19.215687%,72.156864%);fill-opacity:1;" d="M 14.191406 11.257812 C 16.035156 11.183594 16.035156 11.183594 16.972656 11.851562 C 16.164062 12.089844 15.734375 12.210938 14.9375 11.871094 C 14.785156 11.765625 14.628906 11.664062 14.46875 11.554688 C 14.378906 11.847656 14.285156 12.140625 14.191406 12.445312 C 14.007812 12.445312 13.824219 12.445312 13.636719 12.445312 C 13.636719 12.25 13.636719 12.054688 13.636719 11.851562 C 13.820312 11.851562 14.003906 11.851562 14.191406 11.851562 C 14.191406 11.65625 14.191406 11.460938 14.191406 11.257812 Z M 14.191406 11.257812 "/>
<path style=" stroke:none;fill-rule:nonzero;fill:rgb(11.764706%,7.843138%,33.725491%);fill-opacity:1;" d="M 8.347656 5.332031 C 8.53125 5.429688 8.714844 5.527344 8.90625 5.628906 C 7.800781 6.65625 7.800781 6.65625 6.679688 7.703125 C 6.585938 7.410156 6.496094 7.117188 6.398438 6.816406 C 6.988281 6.125 7.527344 5.671875 8.347656 5.332031 Z M 8.347656 5.332031 "/>
<path style=" stroke:none;fill-rule:nonzero;fill:rgb(65.490198%,42.745098%,80.392158%);fill-opacity:1;" d="M 20.589844 16.59375 C 20.589844 16.886719 20.589844 17.179688 20.589844 17.480469 C 18.714844 18.667969 18.714844 18.667969 18.085938 18.667969 C 18.179688 18.277344 18.269531 17.882812 18.363281 17.480469 C 18.761719 17.425781 18.761719 17.425781 19.164062 17.371094 C 20.058594 17.269531 20.058594 17.269531 20.589844 16.59375 Z M 20.589844 16.59375 "/>
<path style=" stroke:none;fill-rule:nonzero;fill:rgb(92.54902%,89.411765%,93.725491%);fill-opacity:1;" d="M 19.757812 16 C 20.03125 16 20.308594 16 20.589844 16 C 20.503906 16.554688 20.503906 16.554688 20.3125 17.183594 C 20.039062 17.378906 19.761719 17.578125 19.476562 17.777344 C 19.203125 17.679688 18.925781 17.582031 18.644531 17.480469 C 19.148438 16.742188 19.148438 16.742188 19.757812 16 Z M 19.757812 16 "/>
<path style=" stroke:none;fill-rule:nonzero;fill:rgb(55.29412%,25.098041%,73.725492%);fill-opacity:1;" d="M 24.207031 13.925781 C 24.632812 14.640625 24.769531 15.03125 24.730469 15.890625 C 24.488281 16.59375 24.488281 16.59375 23.914062 16.980469 C 23.644531 17.082031 23.644531 17.082031 23.375 17.183594 C 23.460938 16.976562 23.546875 16.769531 23.636719 16.554688 C 23.941406 15.675781 24.085938 14.851562 24.207031 13.925781 Z M 24.207031 13.925781 "/>
<path style=" stroke:none;fill-rule:nonzero;fill:rgb(42.352942%,17.647059%,69.411767%);fill-opacity:1;" d="M 13.078125 21.332031 C 13.628906 21.820312 14.179688 22.3125 14.746094 22.816406 C 14.226562 23 14.226562 23 13.636719 23.109375 C 13.449219 22.914062 13.265625 22.71875 13.078125 22.519531 C 13.078125 22.128906 13.078125 21.734375 13.078125 21.332031 Z M 13.078125 21.332031 "/>
<path style=" stroke:none;fill-rule:nonzero;fill:rgb(23.921569%,10.588235%,48.627451%);fill-opacity:1;" d="M 4.453125 8.59375 C 4.542969 8.789062 4.636719 8.984375 4.730469 9.183594 C 4.46875 9.785156 4.191406 10.378906 3.894531 10.964844 C 3.710938 10.667969 3.527344 10.375 3.339844 10.074219 C 3.617188 9.183594 3.617188 9.183594 4.453125 8.59375 Z M 4.453125 8.59375 "/>
<path style=" stroke:none;fill-rule:nonzero;fill:rgb(55.29412%,40.000001%,74.901962%);fill-opacity:1;" d="M 13.355469 31.40625 C 14.917969 31.40625 16.480469 31.40625 18.085938 31.40625 C 18.085938 31.503906 18.085938 31.601562 18.085938 31.703125 C 16.527344 31.703125 14.964844 31.703125 13.355469 31.703125 C 13.355469 31.605469 13.355469 31.507812 13.355469 31.40625 Z M 13.355469 31.40625 "/>
<path style=" stroke:none;fill-rule:nonzero;fill:rgb(92.941177%,89.019608%,94.117647%);fill-opacity:1;" d="M 17.53125 10.371094 C 17.714844 10.371094 17.898438 10.371094 18.085938 10.371094 C 18.554688 11.074219 18.554688 11.074219 18.921875 11.851562 C 18.828125 12.046875 18.738281 12.242188 18.644531 12.445312 C 18.09375 11.957031 17.542969 11.464844 16.972656 10.964844 C 17.15625 10.765625 17.339844 10.570312 17.53125 10.371094 Z M 17.53125 10.371094 "/>
<path style=" stroke:none;fill-rule:nonzero;fill:rgb(49.803922%,19.607843%,72.941178%);fill-opacity:1;" d="M 9.183594 10.074219 C 9.824219 10.269531 10.46875 10.464844 11.128906 10.667969 C 10.855469 10.960938 10.578125 11.253906 10.296875 11.554688 C 9.738281 11.148438 9.738281 11.148438 9.183594 10.667969 C 9.183594 10.472656 9.183594 10.277344 9.183594 10.074219 Z M 9.183594 10.074219 "/>
<path style=" stroke:none;fill-rule:nonzero;fill:rgb(34.117648%,14.901961%,58.823532%);fill-opacity:1;" d="M 13.355469 0 C 14.917969 0 16.480469 0 18.085938 0 C 18.085938 0.0976562 18.085938 0.195312 18.085938 0.296875 C 16.527344 0.296875 14.964844 0.296875 13.355469 0.296875 C 13.355469 0.199219 13.355469 0.101562 13.355469 0 Z M 13.355469 0 "/>
<path style=" stroke:none;fill-rule:nonzero;fill:rgb(32.549021%,25.098041%,56.862748%);fill-opacity:1;" d="M 30.609375 13.628906 C 30.699219 13.628906 30.792969 13.628906 30.886719 13.628906 C 30.886719 14.707031 30.886719 15.78125 30.886719 16.890625 C 30.796875 16.890625 30.703125 16.890625 30.609375 16.890625 C 30.609375 15.8125 30.609375 14.738281 30.609375 13.628906 Z M 30.609375 13.628906 "/>
<path style=" stroke:none;fill-rule:nonzero;fill:rgb(21.960784%,18.431373%,56.470591%);fill-opacity:1;" d="M 0.554688 13.925781 C 0.648438 13.925781 0.738281 13.925781 0.835938 13.925781 C 0.835938 14.902344 0.835938 15.882812 0.835938 16.890625 C 0.742188 16.890625 0.652344 16.890625 0.554688 16.890625 C 0.554688 15.910156 0.554688 14.933594 0.554688 13.925781 Z M 0.554688 13.925781 "/>
<path style=" stroke:none;fill-rule:nonzero;fill:rgb(18.431373%,18.82353%,34.901962%);fill-opacity:1;" d="M 0.835938 17.183594 C 0.925781 17.183594 1.019531 17.183594 1.113281 17.183594 C 1.113281 17.675781 1.113281 18.164062 1.113281 18.667969 C 1.019531 18.667969 0.929688 18.667969 0.835938 18.667969 C 0.835938 18.179688 0.835938 17.6875 0.835938 17.183594 Z M 0.835938 17.183594 "/>
<path style=" stroke:none;fill-rule:nonzero;fill:rgb(41.176471%,25.098041%,62.7451%);fill-opacity:1;" d="M 18.363281 31.109375 C 19.476562 31.40625 19.476562 31.40625 19.476562 31.40625 Z M 18.363281 31.109375 "/>
<path style=" stroke:none;fill-rule:nonzero;fill:rgb(34.509805%,23.137255%,57.254905%);fill-opacity:1;" d="M 11.964844 31.109375 C 13.078125 31.40625 13.078125 31.40625 13.078125 31.40625 Z M 11.964844 31.109375 "/>
<path style=" stroke:none;fill-rule:nonzero;fill:rgb(22.745098%,14.901961%,44.705883%);fill-opacity:1;" d="M 30.332031 17.480469 C 30.609375 18.667969 30.609375 18.667969 30.609375 18.667969 Z M 30.332031 17.480469 "/>
<path style=" stroke:none;fill-rule:nonzero;fill:rgb(13.333334%,8.627451%,40.392157%);fill-opacity:1;" d="M 0.835938 12.148438 C 1.113281 13.332031 1.113281 13.332031 1.113281 13.332031 Z M 0.835938 12.148438 "/>
<path style=" stroke:none;fill-rule:nonzero;fill:rgb(44.705883%,38.82353%,64.705884%);fill-opacity:1;" d="M 30.332031 11.851562 C 30.609375 13.035156 30.609375 13.035156 30.609375 13.035156 Z M 30.332031 11.851562 "/>
<path style=" stroke:none;fill-rule:nonzero;fill:rgb(32.549021%,16.862746%,60.392159%);fill-opacity:1;" d="M 11.964844 0.296875 C 13.078125 0.59375 13.078125 0.59375 13.078125 0.59375 Z M 11.964844 0.296875 "/>
<path style=" stroke:none;fill-rule:nonzero;fill:rgb(27.450982%,12.941177%,50.588238%);fill-opacity:1;" d="M 19.476562 30.816406 C 20.3125 31.109375 20.3125 31.109375 20.3125 31.109375 Z M 19.476562 30.816406 "/>
<path style=" stroke:none;fill-rule:nonzero;fill:rgb(34.509805%,19.215687%,59.215689%);fill-opacity:1;" d="M 11.128906 30.816406 C 11.964844 31.109375 11.964844 31.109375 11.964844 31.109375 Z M 11.128906 30.816406 "/>
<path style=" stroke:none;fill-rule:nonzero;fill:rgb(33.333334%,12.941177%,56.862748%);fill-opacity:1;" d="M 10.296875 30.519531 C 11.128906 30.816406 11.128906 30.816406 11.128906 30.816406 Z M 10.296875 30.519531 "/>
<path style=" stroke:none;fill-rule:nonzero;fill:rgb(29.803923%,18.82353%,53.725493%);fill-opacity:1;" d="M 19.757812 0.59375 C 20.589844 0.890625 20.589844 0.890625 20.589844 0.890625 Z M 19.757812 0.59375 "/>
<path style=" stroke:none;fill-rule:nonzero;fill:rgb(34.901962%,16.078432%,55.29412%);fill-opacity:1;" d="M 11.128906 0.59375 C 11.964844 0.890625 11.964844 0.890625 11.964844 0.890625 Z M 11.128906 0.59375 "/>
<path style=" stroke:none;fill-rule:nonzero;fill:rgb(29.019609%,19.607843%,54.901963%);fill-opacity:1;" d="M 18.644531 0.296875 C 19.476562 0.59375 19.476562 0.59375 19.476562 0.59375 Z M 18.644531 0.296875 "/>
<path style=" stroke:none;fill-rule:nonzero;fill:rgb(33.333334%,21.568628%,58.823532%);fill-opacity:1;" d="M 20.589844 30.519531 C 21.148438 30.816406 21.148438 30.816406 21.148438 30.816406 Z M 20.589844 30.519531 "/>
<path style=" stroke:none;fill-rule:nonzero;fill:rgb(25.882354%,14.509805%,47.058824%);fill-opacity:1;" d="M 21.148438 30.222656 C 21.703125 30.519531 21.703125 30.519531 21.703125 30.519531 Z M 21.148438 30.222656 "/>
<path style=" stroke:none;fill-rule:nonzero;fill:rgb(32.549021%,17.254902%,59.215689%);fill-opacity:1;" d="M 9.738281 30.222656 C 10.296875 30.519531 10.296875 30.519531 10.296875 30.519531 Z M 9.738281 30.222656 "/>
<path style=" stroke:none;fill-rule:nonzero;fill:rgb(33.725491%,14.901961%,56.078434%);fill-opacity:1;" d="M 9.183594 29.925781 C 9.738281 30.222656 9.738281 30.222656 9.738281 30.222656 Z M 9.183594 29.925781 "/>
<path style=" stroke:none;fill-rule:nonzero;fill:rgb(31.37255%,15.686275%,53.725493%);fill-opacity:1;" d="M 8.625 29.628906 C 9.183594 29.925781 9.183594 29.925781 9.183594 29.925781 Z M 8.625 29.628906 "/>
<path style=" stroke:none;fill-rule:nonzero;fill:rgb(37.64706%,15.294118%,65.882355%);fill-opacity:1;" d="M 22.816406 29.332031 C 23.375 29.628906 23.375 29.628906 23.375 29.628906 Z M 22.816406 29.332031 "/>
<path style=" stroke:none;fill-rule:nonzero;fill:rgb(27.058825%,16.470589%,51.372552%);fill-opacity:1;" d="M 8.070312 29.332031 C 8.625 29.628906 8.625 29.628906 8.625 29.628906 Z M 8.070312 29.332031 "/>
<path style=" stroke:none;fill-rule:nonzero;fill:rgb(26.274511%,11.764706%,45.490196%);fill-opacity:1;" d="M 7.234375 28.742188 C 7.792969 29.035156 7.792969 29.035156 7.792969 29.035156 Z M 7.234375 28.742188 "/>
<path style=" stroke:none;fill-rule:nonzero;fill:rgb(25.882354%,13.725491%,48.627451%);fill-opacity:1;" d="M 24.488281 28.148438 C 25.042969 28.445312 25.042969 28.445312 25.042969 28.445312 Z M 24.488281 28.148438 "/>
<path style=" stroke:none;fill-rule:nonzero;fill:rgb(15.294118%,10.588235%,34.117648%);fill-opacity:1;" d="M 5.007812 4.445312 C 5.566406 4.742188 5.566406 4.742188 5.566406 4.742188 Z M 5.007812 4.445312 "/>
<path style=" stroke:none;fill-rule:nonzero;fill:rgb(34.117648%,12.54902%,37.64706%);fill-opacity:1;" d="M 25.042969 3.554688 C 25.601562 3.851562 25.601562 3.851562 25.601562 3.851562 Z M 25.042969 3.554688 "/>
<path style=" stroke:none;fill-rule:nonzero;fill:rgb(23.529412%,14.901961%,48.235294%);fill-opacity:1;" d="M 6.679688 2.964844 C 7.234375 3.257812 7.234375 3.257812 7.234375 3.257812 Z M 6.679688 2.964844 "/>
<path style=" stroke:none;fill-rule:nonzero;fill:rgb(24.705882%,13.333334%,41.568628%);fill-opacity:1;" d="M 23.929688 2.667969 C 24.488281 2.964844 24.488281 2.964844 24.488281 2.964844 Z M 23.929688 2.667969 "/>
<path style=" stroke:none;fill-rule:nonzero;fill:rgb(23.921569%,15.686275%,48.627451%);fill-opacity:1;" d="M 7.511719 2.371094 C 8.070312 2.667969 8.070312 2.667969 8.070312 2.667969 Z M 7.511719 2.371094 "/>
<path style=" stroke:none;fill-rule:nonzero;fill:rgb(25.490198%,16.470589%,46.27451%);fill-opacity:1;" d="M 23.09375 2.074219 C 23.652344 2.371094 23.652344 2.371094 23.652344 2.371094 Z M 23.09375 2.074219 "/>
<path style=" stroke:none;fill-rule:nonzero;fill:rgb(27.058825%,15.294118%,47.450981%);fill-opacity:1;" d="M 22.539062 1.777344 C 23.09375 2.074219 23.09375 2.074219 23.09375 2.074219 Z M 22.539062 1.777344 "/>
<path style=" stroke:none;fill-rule:nonzero;fill:rgb(28.235295%,15.686275%,49.411765%);fill-opacity:1;" d="M 21.984375 1.480469 C 22.539062 1.777344 22.539062 1.777344 22.539062 1.777344 Z M 21.984375 1.480469 "/>
<path style=" stroke:none;fill-rule:nonzero;fill:rgb(28.235295%,17.254902%,51.764709%);fill-opacity:1;" d="M 21.425781 1.183594 C 21.984375 1.480469 21.984375 1.480469 21.984375 1.480469 Z M 21.425781 1.183594 "/>
<path style=" stroke:none;fill-rule:nonzero;fill:rgb(30.588236%,16.470589%,53.333336%);fill-opacity:1;" d="M 9.738281 1.183594 C 10.296875 1.480469 10.296875 1.480469 10.296875 1.480469 Z M 9.738281 1.183594 "/>
<path style=" stroke:none;fill-rule:nonzero;fill:rgb(30.19608%,14.509805%,53.725493%);fill-opacity:1;" d="M 20.589844 0.890625 C 21.148438 1.183594 21.148438 1.183594 21.148438 1.183594 Z M 20.589844 0.890625 "/>
<path style=" stroke:none;fill-rule:nonzero;fill:rgb(26.666668%,16.078432%,52.549022%);fill-opacity:1;" d="M 10.296875 0.890625 C 10.851562 1.183594 10.851562 1.183594 10.851562 1.183594 Z M 10.296875 0.890625 "/>
</g>
</svg>
