<?xml version="1.0" encoding="UTF-8"?>
<svg id="Camada_2" data-name="Camada 2" xmlns="http://www.w3.org/2000/svg" viewBox="0 0 860.98 298.12">
  <defs>
    <style>
      .cls-1 {
        fill: #fff;
      }
    </style>
  </defs>
  <g id="Camada_1-2" data-name="Camada 1">
    <g>
      <g>
        <path class="cls-1" d="M207.86,117.31c.02.38-.56.56-.69.2-.19-.53-.35-.89-.62-1.45-12.49-25.67-34.54-39.5-60.96-49.32-35.67-13.26-63.22-7.46-99.56-5.52-2.54.14-11.05,1-11.83-1.99-3.87-14.82,25.25-32.77,42.64-34.52,50.91-5.13,127.9,35.84,131.02,92.59Z"/>
        <path class="cls-1" d="M177.43,208.06c-.56.08-.8-.69-.29-.94,6.41-3.11,11.26-6.46,16.69-10.71,19.43-15.24,36.45-46.52,41.78-70.43,6.63-29.74,2.52-63.36.33-93.54.69-5.65,6.21-1.83,9.82.06,42.17,22.05,25.1,83.39,7.33,116.58-16.02,29.92-40.99,54.24-75.67,58.99Z"/>
        <path class="cls-1" d="M119.44,92.46l-4.82,2.95c-16.65,10.19-30.56,24.35-40.19,41.32-6.85,12.08-10.69,25.36-13.2,36.9-6.06,27.85-3.71,55.69-3.38,83.8.05,4.39-4.53,7.27-8.5,5.39-33.24-15.68-28.92-60.8-17.62-91.46,14.15-38.4,44.27-75.58,87.18-80.41.86-.1,1.26,1.05.52,1.51Z"/>
        <path class="cls-1" d="M249.29,238.46c6.72-.39,11.19,6.93,7.69,12.68-21.82,35.81-79.13,21.16-111.66,3.83-29.35-15.63-52.89-39.81-56.28-73.97-.06-.65.83-.89,1.1-.3,2.85,6.14,5.9,10.71,9.83,15.82,14.73,19.15,43.7,35.42,67.04,40.96,27,6.41,54.86,2.58,82.27.97Z"/>
        <path class="cls-1" d="M133.02,211.69c-.43-.34-.05-1.02.46-.84,49.01,17.54,86.43-3.99,117.94-41.01,7.86-9.23,25.49-37.86,32.94-42.82,7.65-5.09,11.46,9.46,11.96,14.82,4.19,44.25-51.44,78.19-89.49,84.4-25.7,4.19-53.18,1.92-73.81-14.55Z"/>
        <path class="cls-1" d="M162.91,87.3c.49.48-.04,1.28-.68,1.04-44.49-16.62-83.97,1.89-114.19,35.21-10.96,12.08-18.78,26.47-28.83,38.49-8.62,10.31-16.42,13.06-18.7-3.52C-8.36,93.99,100.28,55.78,153.57,80.98c2.94,1.39,6.92,3.91,9.34,6.32Z"/>
        <path class="cls-1" d="M212.46,159.49s-.4.59-.59.84c-.09.11-.47.22-.34-.21,6.52-20.68,5.91-45.09-1.15-65.6-12.46-36.19-51.21-59-79.66-81.69C124.93,3.02,143.46.05,149.53,0c29.09-.22,51.36,24.32,63.65,48.25,18.66,36.35,20.21,75.4-.72,111.23Z"/>
        <path class="cls-1" d="M85.47,139.21c.35-.46,1.09-.07.9.48-5.64,16.78-7.4,33.06-4.25,50.84,7.81,44.13,49.29,67.3,81.17,93.24,1.14.93,2.02,2.18,2.34,3.61,1.97,8.8-16.36,11.08-22.67,10.7-33.04-2-60.29-41.22-68.6-70.34-8.24-28.86-7.89-64.1,11.1-88.54Z"/>
      </g>
      <path class="cls-1" d="M352.85,189.56l-19.65-58.52c-.16-.49-.34-.97-.52-1.45-4.39-11.49-14.69-19.68-26.77-22.02l-5.37-1.04s-.04-.08,0-.08h22.54c9.29,0,17.52,5.98,20.39,14.81l21.16,65.06c3.25,9.74,7.97,13.14,14.32,13.14s10.78-3.4,14.02-13.14l21.91-66.96c2.52-7.7,9.7-12.91,17.81-12.91h0s-28.05,83.11-28.05,83.11c-5.46,16.54-14.03,21.7-25.69,21.7s-20.52-5.17-26.13-21.7Z"/>
      <path class="cls-1" d="M448.51,178.79v-72.34h67.01c6.49,0,12.05,4.67,13.16,11.07h0s-67.61,0-67.61,0v33.51h56.99v10.63h-56.99v16.09c0,14.32,6.64,20.96,21.55,20.96h47.09,0c-1.02,6.38-6.52,11.07-12.98,11.07h-36.62c-20.96,0-31.59-10.19-31.59-31Z"/>
      <path class="cls-1" d="M636,117.52h-42.81v92.27h0c-6.93,0-12.55-5.62-12.55-12.55v-79.72h-42.81v-11.07h87.1c6.12,0,11.07,4.96,11.07,11.07h0Z"/>
      <path class="cls-1" d="M741.1,209.79h0c-10.25,0-20.03-4.31-26.95-11.88l-25.31-27.69h0c0-4.32,3.5-7.82,7.82-7.82h.3c20.22,0,28.94-8.27,28.94-22.44s-8.71-22.44-28.94-22.44h-32.18v92.27h-12.55v-103.34h45.47c27.61,0,41.04,13.14,41.04,33.51,0,18.01-10.33,30.26-31.59,32.92l33.95,36.91Z"/>
      <path class="cls-1" d="M836.47,179.23h-63.04l-6.31,17.89c-2.68,7.59-9.85,12.67-17.9,12.67h0l29.97-83.12c5.91-16.39,14.03-21.7,25.69-21.7s20.08,5.31,26.13,21.7l29.97,83.12h0c-8.23,0-15.56-5.19-18.3-12.95l-6.21-17.61ZM827.02,168.31c2.74,0,4.66-2.71,3.75-5.29l-11.58-32.95c-3.4-9.74-7.82-13.29-14.32-13.29s-10.63,3.54-14.17,13.29l-11.58,32.95c-.91,2.58,1.01,5.29,3.75,5.29h44.15Z"/>
    </g>
  </g>
</svg>