<?xml version="1.0" encoding="UTF-8"?>
<svg id="_图层_1" data-name="图层 1" xmlns="http://www.w3.org/2000/svg" viewBox="0 0 1000 168.28">
  <defs>
    <style>
      .cls-1 {
        fill: #00b47d;
      }
    </style>
  </defs>
  <path class="cls-1" d="M48.52,84.14l49.82,49.82,31.48-31.48c5.52-5.52,14.6-5.52,20.12,0,5.52,5.52,5.52,14.6,0,20.12l-41.54,41.54c-5.52,5.52-14.6,5.52-20.12,0l-59.72-59.88v35.7c0,7.79-6.33,14.28-14.28,14.28S0,147.91,0,139.96V28.64C0,20.69,6.33,14.36,14.28,14.36s14.28,6.33,14.28,14.28v35.38L88.44,4.14c5.52-5.52,14.6-5.52,20.12,0l41.54,41.54c5.52,5.52,5.52,14.6,0,20.12-5.52,5.52-14.6,5.52-20.12,0l-31.48-31.48-49.98,49.82ZM98.5,69.86c-7.95,0-14.28,6.33-14.28,14.28s6.33,14.28,14.28,14.28,14.28-6.33,14.28-14.28c-.16-7.95-6.49-14.28-14.28-14.28Z"/>
  <g>
    <path class="cls-1" d="M214.9,140.81V26.99h17.26v113.82h-17.26Z"/>
    <path class="cls-1" d="M982.74,140.81V26.99h17.26v113.82h-17.26Z"/>
    <path class="cls-1" d="M305.39,140.81v-49.4c0-12.63-7.2-18.07-16.31-18.07s-16.79,5.59-16.79,18.07v49.4h-16.3V59.76h15.99v8.15c5.59-6.08,13.43-9.11,21.58-9.11s15.19,2.72,19.98,7.35c6.24,6.08,8.15,13.75,8.15,22.86v51.8h-16.3Z"/>
    <path class="cls-1" d="M369.01,141.77c-13.27,0-24.46-2.24-34.05-11.67l10.71-10.71c6.55,6.71,15.35,8.47,23.34,8.47,9.91,0,17.74-3.52,17.74-11.19,0-5.44-3.04-8.95-10.87-9.59l-12.95-1.12c-15.18-1.28-23.98-8.15-23.98-22.38,0-15.83,13.59-24.78,30.53-24.78,12.15,0,22.54,2.56,30.05,9.11l-10.23,10.39c-5.12-4.31-12.31-5.91-19.98-5.91-9.75,0-14.71,4.31-14.71,10.39,0,4.8,2.56,8.47,11.19,9.27l12.79,1.12c15.18,1.28,24.14,8.47,24.14,22.86,0,16.95-14.39,25.74-33.73,25.74Z"/>
    <path class="cls-1" d="M442.71,140.81c-15.19,0-22.22-10.87-22.22-22.54v-44.6h-9.27v-12.47h9.27v-24.62h16.3v24.62h15.67v12.47h-15.67v43.8c0,5.92,2.88,9.43,8.95,9.43h6.71v13.91h-9.75Z"/>
    <path class="cls-1" d="M468.77,43.78v-17.26h17.26v17.26h-17.26ZM469.25,140.81V59.76h16.3v81.05h-16.3Z"/>
    <path class="cls-1" d="M531.6,140.81c-15.19,0-22.22-10.87-22.22-22.54v-44.6h-9.27v-12.47h9.27v-24.62h16.3v24.62h15.67v12.47h-15.67v43.8c0,5.92,2.88,9.43,8.95,9.43h6.71v13.91h-9.75Z"/>
    <path class="cls-1" d="M607.05,140.81v-8.15c-5.59,6.08-13.43,9.11-21.58,9.11s-15.19-2.72-19.98-7.35c-6.24-6.08-8.15-13.75-8.15-22.86v-51.8h16.31v49.4c0,12.63,7.19,18.07,16.3,18.07s16.79-5.59,16.79-18.07v-49.4h16.31v81.05h-15.99Z"/>
    <path class="cls-1" d="M669.08,140.81c-15.19,0-22.22-10.87-22.22-22.54v-44.6h-9.27v-12.47h9.27v-24.62h16.3v24.62h15.67v12.47h-15.67v43.8c0,5.92,2.88,9.43,8.95,9.43h6.71v13.91h-9.75Z"/>
    <path class="cls-1" d="M695.14,43.78v-17.26h17.26v17.26h-17.26ZM695.62,140.81V59.76h16.3v81.05h-16.3Z"/>
    <path class="cls-1" d="M788.02,132.18c-5.28,5.43-13.27,9.59-24.3,9.59s-18.86-4.16-24.14-9.59c-7.67-7.99-9.59-18.22-9.59-31.97s1.92-23.82,9.59-31.81c5.28-5.43,13.11-9.59,24.14-9.59s19.02,4.16,24.3,9.59c7.67,7.99,9.59,18.22,9.59,31.81s-1.92,23.98-9.59,31.97ZM775.71,77.99c-3.04-3.04-7.19-4.64-11.99-4.64s-8.79,1.6-11.83,4.64c-4.96,4.96-5.59,13.43-5.59,22.22s.64,17.26,5.59,22.22c3.04,3.04,7.03,4.8,11.83,4.8s8.95-1.76,11.99-4.8c4.96-4.96,5.59-13.43,5.59-22.22s-.64-17.26-5.59-22.22Z"/>
    <path class="cls-1" d="M865.07,140.81v-49.4c0-12.63-7.2-18.07-16.31-18.07s-16.79,5.59-16.79,18.07v49.4h-16.3V59.76h15.99v8.15c5.59-6.08,13.43-9.11,21.58-9.11s15.19,2.72,19.98,7.35c6.24,6.08,8.15,13.75,8.15,22.86v51.8h-16.3Z"/>
    <path class="cls-1" d="M946.12,140.81v-7.36c-5.91,5.92-11.51,8.31-21.58,8.31s-16.79-2.4-21.74-7.35c-4.16-4.32-6.39-10.55-6.39-17.42,0-13.59,9.43-23.34,27.97-23.34h21.42v-5.75c0-10.23-5.12-15.19-17.74-15.19-8.95,0-13.27,2.08-17.75,7.83l-10.71-10.07c7.67-8.95,15.67-11.67,29.09-11.67,22.22,0,33.41,9.43,33.41,27.81v54.19h-15.99ZM945.8,105h-19.02c-9.59,0-14.55,4.31-14.55,11.67s4.64,11.51,14.87,11.51c6.24,0,10.87-.48,15.19-4.63,2.4-2.4,3.52-6.24,3.52-11.99v-6.55Z"/>
  </g>
</svg>