<svg width="24" height="24" viewBox="0 0 24 24" fill="none" xmlns="http://www.w3.org/2000/svg">
<path d="M8.64905 10.5742V15.4832" stroke="#C8D2D9" stroke-width="1.5" stroke-linecap="round" stroke-linejoin="round"/>
<path d="M11.92 15.4832V12.6192C11.92 11.4892 12.835 10.5742 13.965 10.5742V10.5742C15.095 10.5742 16.01 11.4892 16.01 12.6192V15.4832" stroke="#C8D2D9" stroke-width="1.5" stroke-linecap="round" stroke-linejoin="round"/>
<path d="M8.64695 7.60799C8.53395 7.60799 8.44195 7.69999 8.44295 7.81299C8.44295 7.92599 8.53495 8.01799 8.64795 8.01799C8.76095 8.01799 8.85295 7.92599 8.85295 7.81299C8.85195 7.69899 8.75995 7.60799 8.64695 7.60799" stroke="#C8D2D9" stroke-width="1.5" stroke-linecap="round" stroke-linejoin="round"/>
<path d="M19.071 4.92899C22.976 8.83399 22.976 15.166 19.071 19.071C15.166 22.976 8.83399 22.976 4.92899 19.071C1.02399 15.166 1.02399 8.83399 4.92899 4.92899C8.83399 1.02399 15.166 1.02399 19.071 4.92899" stroke="#C8D2D9" stroke-width="1.5" stroke-linecap="round" stroke-linejoin="round"/>
</svg>
